<svg xmlns="http://www.w3.org/2000/svg" xmlns:xlink="http://www.w3.org/1999/xlink" width="996" height="573.62"><rect width="996" height="573.62" rx="5" ry="5" class="a"/><svg y="0%" x="0%"><circle cx="20" cy="20" r="6" fill="#ff5f58"/><circle cx="40" cy="20" r="6" fill="#ffbd2e"/><circle cx="60" cy="20" r="6" fill="#18c132"/></svg><svg height="477.62" viewBox="0 0 92 47.762" width="920" x="33" xmlns="http://www.w3.org/2000/svg" xmlns:xlink="http://www.w3.org/1999/xlink" y="68"><style>@keyframes l{0%{transform:translateX(0)}2.8%{transform:translateX(-184px)}3.3%{transform:translateX(-276px)}3.7%{transform:translateX(-368px)}4.2%{transform:translateX(-460px)}4.7%{transform:translateX(-552px)}5.2%{transform:translateX(-644px)}5.6%{transform:translateX(-736px)}6.1%{transform:translateX(-828px)}6.4%{transform:translateX(-920px)}6.7%{transform:translateX(-1012px)}7.1%{transform:translateX(-1104px)}7.5%{transform:translateX(-1196px)}8%{transform:translateX(-1288px)}8.5%{transform:translateX(-1380px)}9%{transform:translateX(-1472px)}9.4%{transform:translateX(-1564px)}9.7%{transform:translateX(-1656px)}10.1%{transform:translateX(-1748px)}10.6%{transform:translateX(-1840px)}11.1%{transform:translateX(-1932px)}11.6%{transform:translateX(-2024px)}12%{transform:translateX(-2116px)}12.4%{transform:translateX(-2208px)}12.9%{transform:translateX(-2300px)}13.2%{transform:translateX(-2392px)}13.7%{transform:translateX(-2484px)}14.2%{transform:translateX(-2576px)}14.7%{transform:translateX(-2668px)}15.1%{transform:translateX(-2760px)}15.4%{transform:translateX(-2852px)}15.9%{transform:translateX(-2944px)}16.2%{transform:translateX(-3036px)}16.6%{transform:translateX(-3128px)}17%{transform:translateX(-3220px)}17.5%{transform:translateX(-3312px)}17.9%{transform:translateX(-3404px)}18.3%{transform:translateX(-3496px)}18.6%{transform:translateX(-3588px)}19.1%{transform:translateX(-3680px)}19.5%{transform:translateX(-3772px)}20%{transform:translateX(-3864px)}20.4%{transform:translateX(-3956px)}20.9%{transform:translateX(-4048px)}21.4%{transform:translateX(-4140px)}21.8%{transform:translateX(-4232px)}22.3%{transform:translateX(-4324px)}22.7%{transform:translateX(-4416px)}23.2%{transform:translateX(-4508px)}23.6%{transform:translateX(-4600px)}24.1%{transform:translateX(-4692px)}24.5%{transform:translateX(-4784px)}24.8%{transform:translateX(-4876px)}25.2%{transform:translateX(-4968px)}25.5%{transform:translateX(-5060px)}25.9%{transform:translateX(-5152px)}26.4%{transform:translateX(-5336px)}27.3%{transform:translateX(-5428px)}32.9%{transform:translateX(-5520px)}37.2%{transform:translateX(-5612px)}37.5%{transform:translateX(-5704px)}37.9%{transform:translateX(-5796px)}38.3%{transform:translateX(-5888px)}38.6%{transform:translateX(-5980px)}51.4%{transform:translateX(-6072px)}57.1%{transform:translateX(-6164px)}61.3%{transform:translateX(-6256px)}61.7%{transform:translateX(-6348px)}62%{transform:translateX(-6440px)}62.4%{transform:translateX(-6532px)}62.7%{transform:translateX(-6624px)}63.1%{transform:translateX(-6716px)}63.5%{transform:translateX(-6808px)}63.8%{transform:translateX(-6900px)}64.2%{transform:translateX(-6992px)}64.5%{transform:translateX(-7084px)}to{transform:translateX(-7176px)}}.a{fill:#282d35}.f{fill:#a8cc8c;font-weight:700}.f,.g,.h,.i{white-space:pre}.g{fill:#fff;font-weight:700}.h,.i{fill:#b9c0cb}.i{fill:#6f7783}</style><g font-family="Monaco,Consolas,Menlo,'Bitstream Vera Sans Mono','Powerline Symbols',monospace" font-size="1.67"><defs><symbol id="1"><text y="1.67" class="f">❯</text></symbol><symbol id="2"><text y="1.67" class="f">❯</text><text x="2.004" y="1.67" class="g">while</text></symbol><symbol id="3"><text y="1.67" class="f">❯</text><text x="2.004" y="1.67" class="g">while</text><text x="8.016" y="1.67" class="g">:;</text></symbol><symbol id="4"><text y="1.67" class="f">❯</text><text x="2.004" y="1.67" class="g">while</text><text x="8.016" y="1.67" class="g">:;</text><text x="11.022" y="1.67" class="g">do</text></symbol><symbol id="5"><text y="1.67" class="f">❯</text><text x="2.004" y="1.67" class="g">while</text><text x="8.016" y="1.67" class="g">:;</text><text x="11.022" y="1.67" class="g">do</text><text x="14.028" y="1.67" class="g">gh-delta</text></symbol><symbol id="6"><text y="1.67" class="f">❯</text><text x="2.004" y="1.67" class="g">while</text><text x="8.016" y="1.67" class="g">:;</text><text x="11.022" y="1.67" class="g">do</text><text x="14.028" y="1.67" class="g">gh-delta</text><text x="23.046" y="1.67" class="g">--repo</text></symbol><symbol id="7"><text y="1.67" class="f">❯</text><text x="2.004" y="1.67" class="g">while</text><text x="8.016" y="1.67" class="g">:;</text><text x="11.022" y="1.67" class="g">do</text><text x="14.028" y="1.67" class="g">gh-delta</text><text x="23.046" y="1.67" class="g">--repo</text><text x="30.06" y="1.67" class="g">owner/repo;</text></symbol><symbol id="8"><text y="1.67" class="f">❯</text><text x="2.004" y="1.67" class="g">while</text><text x="8.016" y="1.67" class="g">:;</text><text x="11.022" y="1.67" class="g">do</text><text x="14.028" y="1.67" class="g">gh-delta</text><text x="23.046" y="1.67" class="g">--repo</text><text x="30.06" y="1.67" class="g">owner/repo;</text><text x="42.084" y="1.67" class="g">sleep</text></symbol><symbol id="9"><text y="1.67" class="f">❯</text><text x="2.004" y="1.67" class="g">while</text><text x="8.016" y="1.67" class="g">:;</text><text x="11.022" y="1.67" class="g">do</text><text x="14.028" y="1.67" class="g">gh-delta</text><text x="23.046" y="1.67" class="g">--repo</text><text x="30.06" y="1.67" class="g">owner/repo;</text><text x="42.084" y="1.67" class="g">sleep</text><text x="48.096" y="1.67" class="g">300;</text></symbol><symbol id="10"><text y="1.67" class="f">❯</text><text x="2.004" y="1.67" class="g">while</text><text x="8.016" y="1.67" class="g">:;</text><text x="11.022" y="1.67" class="g">do</text><text x="14.028" y="1.67" class="g">gh-delta</text><text x="23.046" y="1.67" class="g">--repo</text><text x="30.06" y="1.67" class="g">owner/repo;</text><text x="42.084" y="1.67" class="g">sleep</text><text x="48.096" y="1.67" class="g">300;</text><text x="53.106" y="1.67" class="g">done</text></symbol><symbol id="11"><text y="1.67" class="h">2026-07-01T12:00:00.000Z</text><text x="25.05" y="1.67" class="h">|</text><text x="27.054" y="1.67" class="h">0</text><text x="29.058" y="1.67" class="h">delta(s)</text></symbol><symbol id="12"><text y="1.67" class="h">Baseline</text><text x="9.018" y="1.67" class="h">seeded</text><text x="16.032" y="1.67" class="h">for</text><text x="20.04" y="1.67" class="h">owner/repo</text><text x="31.062" y="1.67" class="h">(monitor:</text><text x="41.082" y="1.67" class="h">host-9c1f7b2a4e83).</text></symbol><symbol id="13"><text y="1.67" class="h">No</text><text x="3.006" y="1.67" class="h">action</text><text x="10.02" y="1.67" class="h">taken.</text></symbol><symbol id="14"><text y="1.67" class="i">sleep</text><text x="6.012" y="1.67" class="i">300</text><text x="11.022" y="1.67" class="i">#</text><text x="13.026" y="1.67" class="i">in</text><text x="16.032" y="1.67" class="i">between,</text><text x="25.05" y="1.67" class="i">someone</text><text x="33.066" y="1.67" class="i">works</text><text x="39.078" y="1.67" class="i">on</text><text x="42.084" y="1.67" class="i">the</text><text x="46.092" y="1.67" class="i">repo</text></symbol><symbol id="15"><text y="1.67" class="h">2026-07-01T12:05:00.000Z</text><text x="25.05" y="1.67" class="h">|</text><text x="27.054" y="1.67" class="h">2</text><text x="29.058" y="1.67" class="h">delta(s)</text></symbol><symbol id="16"><text y="1.67" class="h">PR</text><text x="3.006" y="1.67" class="h">#42</text><text x="7.014" y="1.67" class="h">&quot;Add</text><text x="12.024" y="1.67" class="h">billing</text><text x="20.04" y="1.67" class="h">webhook&quot;:</text><text x="30.06" y="1.67" class="h">ci-changed,</text><text x="42.084" y="1.67" class="h">review-changed</text></symbol><symbol id="17"><text y="1.67" class="h">classes:</text><text x="9.018" y="1.67" class="h">ci-changed,</text><text x="21.042" y="1.67" class="h">review-changed</text></symbol><symbol id="18"><text y="1.67" class="h">suggested</text><text x="10.02" y="1.67" class="h">action:</text><text x="18.036" y="1.67" class="h">CI/review</text><text x="28.056" y="1.67" class="h">changed.</text><text x="37.074" y="1.67" class="h">Read</text><text x="42.084" y="1.67" class="h">checks</text><text x="49.098" y="1.67" class="h">and</text><text x="53.106" y="1.67" class="h">review</text><text x="60.12" y="1.67" class="h">threads</text><text x="68.136" y="1.67" class="h">before</text><text x="75.15" y="1.67" class="h">merge.</text></symbol><symbol id="19"><text y="1.67" class="h">ISSUE</text><text x="6.012" y="1.67" class="h">#17</text><text x="10.02" y="1.67" class="h">&quot;Backfill</text><text x="20.04" y="1.67" class="h">customer</text><text x="29.058" y="1.67" class="h">imports&quot;:</text><text x="39.078" y="1.67" class="h">relabeled</text></symbol><symbol id="20"><text y="1.67" class="h">classes:</text><text x="9.018" y="1.67" class="h">relabeled</text></symbol><symbol id="21"><text y="1.67" class="h">suggested</text><text x="10.02" y="1.67" class="h">action:</text><text x="18.036" y="1.67" class="h">scope/state</text><text x="30.06" y="1.67" class="h">changed.</text><text x="39.078" y="1.67" class="h">Reassess</text><text x="48.096" y="1.67" class="h">dispatch.</text></symbol><symbol id="a"><path fill="transparent" d="M0 0h92v22H0z"/></symbol><symbol id="b"><path fill="#6f7683" d="M0 0h1.102v2.171H0z"/></symbol></defs><path class="a" d="M0 0h92v47.762H0z"/><g style="animation-duration:14.091s;animation-iteration-count:infinite;animation-name:l;animation-timing-function:steps(1,end)"><svg width="7268"><svg><use xlink:href="#a"/><use xlink:href="#b" x="-.004"/></svg><svg x="92"><use xlink:href="#a"/><use xlink:href="#b" x="1.996"/><use xlink:href="#1"/></svg><svg x="184"><use xlink:href="#a"/><use xlink:href="#b" x="1.996"/><use xlink:href="#1"/></svg><svg x="276"><use xlink:href="#a"/><use xlink:href="#b" x="2.996"/><text y="1.67" class="f">❯</text><text x="2.004" y="1.67" class="g">w</text></svg><svg x="368"><use xlink:href="#a"/><use xlink:href="#b" x="3.996"/><text y="1.67" class="f">❯</text><text x="2.004" y="1.67" class="g">wh</text></svg><svg x="460"><use xlink:href="#a"/><use xlink:href="#b" x="4.996"/><text y="1.67" class="f">❯</text><text x="2.004" y="1.67" class="g">whi</text></svg><svg x="552"><use xlink:href="#a"/><use xlink:href="#b" x="5.996"/><text y="1.67" class="f">❯</text><text x="2.004" y="1.67" class="g">whil</text></svg><svg x="644"><use xlink:href="#a"/><use xlink:href="#b" x="6.996"/><use xlink:href="#2"/></svg><svg x="736"><use xlink:href="#a"/><use xlink:href="#b" x="7.996"/><use xlink:href="#2"/></svg><svg x="828"><use xlink:href="#a"/><use xlink:href="#b" x="8.996"/><text y="1.67" class="f">❯</text><text x="2.004" y="1.67" class="g">while</text><text x="8.016" y="1.67" class="g">:</text></svg><svg x="920"><use xlink:href="#a"/><use xlink:href="#b" x="9.996"/><use xlink:href="#3"/></svg><svg x="1012"><use xlink:href="#a"/><use xlink:href="#b" x="10.996"/><use xlink:href="#3"/></svg><svg x="1104"><use xlink:href="#a"/><use xlink:href="#b" x="11.996"/><text y="1.67" class="f">❯</text><text x="2.004" y="1.67" class="g">while</text><text x="8.016" y="1.67" class="g">:;</text><text x="11.022" y="1.67" class="g">d</text></svg><svg x="1196"><use xlink:href="#a"/><use xlink:href="#b" x="12.996"/><use xlink:href="#4"/></svg><svg x="1288"><use xlink:href="#a"/><use xlink:href="#b" x="13.996"/><use xlink:href="#4"/></svg><svg x="1380"><use xlink:href="#a"/><use xlink:href="#b" x="14.996"/><text y="1.67" class="f">❯</text><text x="2.004" y="1.67" class="g">while</text><text x="8.016" y="1.67" class="g">:;</text><text x="11.022" y="1.67" class="g">do</text><text x="14.028" y="1.67" class="g">g</text></svg><svg x="1472"><use xlink:href="#a"/><use xlink:href="#b" x="15.996"/><text y="1.67" class="f">❯</text><text x="2.004" y="1.67" class="g">while</text><text x="8.016" y="1.67" class="g">:;</text><text x="11.022" y="1.67" class="g">do</text><text x="14.028" y="1.67" class="g">gh</text></svg><svg x="1564"><use xlink:href="#a"/><use xlink:href="#b" x="16.996"/><text y="1.67" class="f">❯</text><text x="2.004" y="1.67" class="g">while</text><text x="8.016" y="1.67" class="g">:;</text><text x="11.022" y="1.67" class="g">do</text><text x="14.028" y="1.67" class="g">gh-</text></svg><svg x="1656"><use xlink:href="#a"/><use xlink:href="#b" x="17.996"/><text y="1.67" class="f">❯</text><text x="2.004" y="1.67" class="g">while</text><text x="8.016" y="1.67" class="g">:;</text><text x="11.022" y="1.67" class="g">do</text><text x="14.028" y="1.67" class="g">gh-d</text></svg><svg x="1748"><use xlink:href="#a"/><use xlink:href="#b" x="18.996"/><text y="1.67" class="f">❯</text><text x="2.004" y="1.67" class="g">while</text><text x="8.016" y="1.67" class="g">:;</text><text x="11.022" y="1.67" class="g">do</text><text x="14.028" y="1.67" class="g">gh-de</text></svg><svg x="1840"><use xlink:href="#a"/><use xlink:href="#b" x="19.996"/><text y="1.67" class="f">❯</text><text x="2.004" y="1.67" class="g">while</text><text x="8.016" y="1.67" class="g">:;</text><text x="11.022" y="1.67" class="g">do</text><text x="14.028" y="1.67" class="g">gh-del</text></svg><svg x="1932"><use xlink:href="#a"/><use xlink:href="#b" x="20.996"/><text y="1.67" class="f">❯</text><text x="2.004" y="1.67" class="g">while</text><text x="8.016" y="1.67" class="g">:;</text><text x="11.022" y="1.67" class="g">do</text><text x="14.028" y="1.67" class="g">gh-delt</text></svg><svg x="2024"><use xlink:href="#a"/><use xlink:href="#b" x="21.996"/><use xlink:href="#5"/></svg><svg x="2116"><use xlink:href="#a"/><use xlink:href="#b" x="22.996"/><use xlink:href="#5"/></svg><svg x="2208"><use xlink:href="#a"/><use xlink:href="#b" x="23.996"/><text y="1.67" class="f">❯</text><text x="2.004" y="1.67" class="g">while</text><text x="8.016" y="1.67" class="g">:;</text><text x="11.022" y="1.67" class="g">do</text><text x="14.028" y="1.67" class="g">gh-delta</text><text x="23.046" y="1.67" class="g">-</text></svg><svg x="2300"><use xlink:href="#a"/><use xlink:href="#b" x="24.996"/><text y="1.67" class="f">❯</text><text x="2.004" y="1.67" class="g">while</text><text x="8.016" y="1.67" class="g">:;</text><text x="11.022" y="1.67" class="g">do</text><text x="14.028" y="1.67" class="g">gh-delta</text><text x="23.046" y="1.67" class="g">--</text></svg><svg x="2392"><use xlink:href="#a"/><use xlink:href="#b" x="25.996"/><text y="1.67" class="f">❯</text><text x="2.004" y="1.67" class="g">while</text><text x="8.016" y="1.67" class="g">:;</text><text x="11.022" y="1.67" class="g">do</text><text x="14.028" y="1.67" class="g">gh-delta</text><text x="23.046" y="1.67" class="g">--r</text></svg><svg x="2484"><use xlink:href="#a"/><use xlink:href="#b" x="26.996"/><text y="1.67" class="f">❯</text><text x="2.004" y="1.67" class="g">while</text><text x="8.016" y="1.67" class="g">:;</text><text x="11.022" y="1.67" class="g">do</text><text x="14.028" y="1.67" class="g">gh-delta</text><text x="23.046" y="1.67" class="g">--re</text></svg><svg x="2576"><use xlink:href="#a"/><use xlink:href="#b" x="27.996"/><text y="1.67" class="f">❯</text><text x="2.004" y="1.67" class="g">while</text><text x="8.016" y="1.67" class="g">:;</text><text x="11.022" y="1.67" class="g">do</text><text x="14.028" y="1.67" class="g">gh-delta</text><text x="23.046" y="1.67" class="g">--rep</text></svg><svg x="2668"><use xlink:href="#a"/><use xlink:href="#b" x="28.996"/><use xlink:href="#6"/></svg><svg x="2760"><use xlink:href="#a"/><use xlink:href="#b" x="29.996"/><use xlink:href="#6"/></svg><svg x="2852"><use xlink:href="#a"/><use xlink:href="#b" x="30.996"/><text y="1.67" class="f">❯</text><text x="2.004" y="1.67" class="g">while</text><text x="8.016" y="1.67" class="g">:;</text><text x="11.022" y="1.67" class="g">do</text><text x="14.028" y="1.67" class="g">gh-delta</text><text x="23.046" y="1.67" class="g">--repo</text><text x="30.06" y="1.67" class="g">o</text></svg><svg x="2944"><use xlink:href="#a"/><use xlink:href="#b" x="31.996"/><text y="1.67" class="f">❯</text><text x="2.004" y="1.67" class="g">while</text><text x="8.016" y="1.67" class="g">:;</text><text x="11.022" y="1.67" class="g">do</text><text x="14.028" y="1.67" class="g">gh-delta</text><text x="23.046" y="1.67" class="g">--repo</text><text x="30.06" y="1.67" class="g">ow</text></svg><svg x="3036"><use xlink:href="#a"/><use xlink:href="#b" x="32.996"/><text y="1.67" class="f">❯</text><text x="2.004" y="1.67" class="g">while</text><text x="8.016" y="1.67" class="g">:;</text><text x="11.022" y="1.67" class="g">do</text><text x="14.028" y="1.67" class="g">gh-delta</text><text x="23.046" y="1.67" class="g">--repo</text><text x="30.06" y="1.67" class="g">own</text></svg><svg x="3128"><use xlink:href="#a"/><use xlink:href="#b" x="33.996"/><text y="1.67" class="f">❯</text><text x="2.004" y="1.67" class="g">while</text><text x="8.016" y="1.67" class="g">:;</text><text x="11.022" y="1.67" class="g">do</text><text x="14.028" y="1.67" class="g">gh-delta</text><text x="23.046" y="1.67" class="g">--repo</text><text x="30.06" y="1.67" class="g">owne</text></svg><svg x="3220"><use xlink:href="#a"/><use xlink:href="#b" x="34.996"/><text y="1.67" class="f">❯</text><text x="2.004" y="1.67" class="g">while</text><text x="8.016" y="1.67" class="g">:;</text><text x="11.022" y="1.67" class="g">do</text><text x="14.028" y="1.67" class="g">gh-delta</text><text x="23.046" y="1.67" class="g">--repo</text><text x="30.06" y="1.67" class="g">owner</text></svg><svg x="3312"><use xlink:href="#a"/><use xlink:href="#b" x="35.996"/><text y="1.67" class="f">❯</text><text x="2.004" y="1.67" class="g">while</text><text x="8.016" y="1.67" class="g">:;</text><text x="11.022" y="1.67" class="g">do</text><text x="14.028" y="1.67" class="g">gh-delta</text><text x="23.046" y="1.67" class="g">--repo</text><text x="30.06" y="1.67" class="g">owner/</text></svg><svg x="3404"><use xlink:href="#a"/><use xlink:href="#b" x="36.996"/><text y="1.67" class="f">❯</text><text x="2.004" y="1.67" class="g">while</text><text x="8.016" y="1.67" class="g">:;</text><text x="11.022" y="1.67" class="g">do</text><text x="14.028" y="1.67" class="g">gh-delta</text><text x="23.046" y="1.67" class="g">--repo</text><text x="30.06" y="1.67" class="g">owner/r</text></svg><svg x="3496"><use xlink:href="#a"/><use xlink:href="#b" x="37.996"/><text y="1.67" class="f">❯</text><text x="2.004" y="1.67" class="g">while</text><text x="8.016" y="1.67" class="g">:;</text><text x="11.022" y="1.67" class="g">do</text><text x="14.028" y="1.67" class="g">gh-delta</text><text x="23.046" y="1.67" class="g">--repo</text><text x="30.06" y="1.67" class="g">owner/re</text></svg><svg x="3588"><use xlink:href="#a"/><use xlink:href="#b" x="38.996"/><text y="1.67" class="f">❯</text><text x="2.004" y="1.67" class="g">while</text><text x="8.016" y="1.67" class="g">:;</text><text x="11.022" y="1.67" class="g">do</text><text x="14.028" y="1.67" class="g">gh-delta</text><text x="23.046" y="1.67" class="g">--repo</text><text x="30.06" y="1.67" class="g">owner/rep</text></svg><svg x="3680"><use xlink:href="#a"/><use xlink:href="#b" x="39.996"/><text y="1.67" class="f">❯</text><text x="2.004" y="1.67" class="g">while</text><text x="8.016" y="1.67" class="g">:;</text><text x="11.022" y="1.67" class="g">do</text><text x="14.028" y="1.67" class="g">gh-delta</text><text x="23.046" y="1.67" class="g">--repo</text><text x="30.06" y="1.67" class="g">owner/repo</text></svg><svg x="3772"><use xlink:href="#a"/><use xlink:href="#b" x="40.996"/><use xlink:href="#7"/></svg><svg x="3864"><use xlink:href="#a"/><use xlink:href="#b" x="41.996"/><use xlink:href="#7"/></svg><svg x="3956"><use xlink:href="#a"/><use xlink:href="#b" x="42.996"/><text y="1.67" class="f">❯</text><text x="2.004" y="1.67" class="g">while</text><text x="8.016" y="1.67" class="g">:;</text><text x="11.022" y="1.67" class="g">do</text><text x="14.028" y="1.67" class="g">gh-delta</text><text x="23.046" y="1.67" class="g">--repo</text><text x="30.06" y="1.67" class="g">owner/repo;</text><text x="42.084" y="1.67" class="g">s</text></svg><svg x="4048"><use xlink:href="#a"/><use xlink:href="#b" x="43.996"/><text y="1.67" class="f">❯</text><text x="2.004" y="1.67" class="g">while</text><text x="8.016" y="1.67" class="g">:;</text><text x="11.022" y="1.67" class="g">do</text><text x="14.028" y="1.67" class="g">gh-delta</text><text x="23.046" y="1.67" class="g">--repo</text><text x="30.06" y="1.67" class="g">owner/repo;</text><text x="42.084" y="1.67" class="g">sl</text></svg><svg x="4140"><use xlink:href="#a"/><use xlink:href="#b" x="44.996"/><text y="1.67" class="f">❯</text><text x="2.004" y="1.67" class="g">while</text><text x="8.016" y="1.67" class="g">:;</text><text x="11.022" y="1.67" class="g">do</text><text x="14.028" y="1.67" class="g">gh-delta</text><text x="23.046" y="1.67" class="g">--repo</text><text x="30.06" y="1.67" class="g">owner/repo;</text><text x="42.084" y="1.67" class="g">sle</text></svg><svg x="4232"><use xlink:href="#a"/><use xlink:href="#b" x="45.996"/><text y="1.67" class="f">❯</text><text x="2.004" y="1.67" class="g">while</text><text x="8.016" y="1.67" class="g">:;</text><text x="11.022" y="1.67" class="g">do</text><text x="14.028" y="1.67" class="g">gh-delta</text><text x="23.046" y="1.67" class="g">--repo</text><text x="30.06" y="1.67" class="g">owner/repo;</text><text x="42.084" y="1.67" class="g">slee</text></svg><svg x="4324"><use xlink:href="#a"/><use xlink:href="#b" x="46.996"/><use xlink:href="#8"/></svg><svg x="4416"><use xlink:href="#a"/><use xlink:href="#b" x="47.996"/><use xlink:href="#8"/></svg><svg x="4508"><use xlink:href="#a"/><use xlink:href="#b" x="48.996"/><text y="1.67" class="f">❯</text><text x="2.004" y="1.67" class="g">while</text><text x="8.016" y="1.67" class="g">:;</text><text x="11.022" y="1.67" class="g">do</text><text x="14.028" y="1.67" class="g">gh-delta</text><text x="23.046" y="1.67" class="g">--repo</text><text x="30.06" y="1.67" class="g">owner/repo;</text><text x="42.084" y="1.67" class="g">sleep</text><text x="48.096" y="1.67" class="g">3</text></svg><svg x="4600"><use xlink:href="#a"/><use xlink:href="#b" x="49.996"/><text y="1.67" class="f">❯</text><text x="2.004" y="1.67" class="g">while</text><text x="8.016" y="1.67" class="g">:;</text><text x="11.022" y="1.67" class="g">do</text><text x="14.028" y="1.67" class="g">gh-delta</text><text x="23.046" y="1.67" class="g">--repo</text><text x="30.06" y="1.67" class="g">owner/repo;</text><text x="42.084" y="1.67" class="g">sleep</text><text x="48.096" y="1.67" class="g">30</text></svg><svg x="4692"><use xlink:href="#a"/><use xlink:href="#b" x="50.996"/><text y="1.67" class="f">❯</text><text x="2.004" y="1.67" class="g">while</text><text x="8.016" y="1.67" class="g">:;</text><text x="11.022" y="1.67" class="g">do</text><text x="14.028" y="1.67" class="g">gh-delta</text><text x="23.046" y="1.67" class="g">--repo</text><text x="30.06" y="1.67" class="g">owner/repo;</text><text x="42.084" y="1.67" class="g">sleep</text><text x="48.096" y="1.67" class="g">300</text></svg><svg x="4784"><use xlink:href="#a"/><use xlink:href="#b" x="51.996"/><use xlink:href="#9"/></svg><svg x="4876"><use xlink:href="#a"/><use xlink:href="#b" x="52.996"/><use xlink:href="#9"/></svg><svg x="4968"><use xlink:href="#a"/><use xlink:href="#b" x="53.996"/><text y="1.67" class="f">❯</text><text x="2.004" y="1.67" class="g">while</text><text x="8.016" y="1.67" class="g">:;</text><text x="11.022" y="1.67" class="g">do</text><text x="14.028" y="1.67" class="g">gh-delta</text><text x="23.046" y="1.67" class="g">--repo</text><text x="30.06" y="1.67" class="g">owner/repo;</text><text x="42.084" y="1.67" class="g">sleep</text><text x="48.096" y="1.67" class="g">300;</text><text x="53.106" y="1.67" class="g">d</text></svg><svg x="5060"><use xlink:href="#a"/><use xlink:href="#b" x="54.996"/><text y="1.67" class="f">❯</text><text x="2.004" y="1.67" class="g">while</text><text x="8.016" y="1.67" class="g">:;</text><text x="11.022" y="1.67" class="g">do</text><text x="14.028" y="1.67" class="g">gh-delta</text><text x="23.046" y="1.67" class="g">--repo</text><text x="30.06" y="1.67" class="g">owner/repo;</text><text x="42.084" y="1.67" class="g">sleep</text><text x="48.096" y="1.67" class="g">300;</text><text x="53.106" y="1.67" class="g">do</text></svg><svg x="5152"><use xlink:href="#a"/><use xlink:href="#b" x="55.996"/><text y="1.67" class="f">❯</text><text x="2.004" y="1.67" class="g">while</text><text x="8.016" y="1.67" class="g">:;</text><text x="11.022" y="1.67" class="g">do</text><text x="14.028" y="1.67" class="g">gh-delta</text><text x="23.046" y="1.67" class="g">--repo</text><text x="30.06" y="1.67" class="g">owner/repo;</text><text x="42.084" y="1.67" class="g">sleep</text><text x="48.096" y="1.67" class="g">300;</text><text x="53.106" y="1.67" class="g">don</text></svg><svg x="5244"><use xlink:href="#a"/><use xlink:href="#b" x="56.996"/><use xlink:href="#10"/></svg><svg x="5336"><use xlink:href="#a"/><use xlink:href="#b" x="56.996"/><use xlink:href="#10"/></svg><svg x="5428"><use xlink:href="#a"/><use xlink:href="#b" x="-.004" y="2.146"/><use xlink:href="#10"/></svg><svg x="5520"><use xlink:href="#a"/><use xlink:href="#b" x="29.996" y="2.146"/><use xlink:href="#10"/><text y="3.841" class="i">…</text><text x="2.004" y="3.841" class="i">seeding</text><text x="10.02" y="3.841" class="i">baseline</text><text x="19.038" y="3.841" class="i">from</text><text x="24.048" y="3.841" class="i">GitHub</text></svg><svg x="5612"><use xlink:href="#a"/><use xlink:href="#b" x="-.004" y="2.146"/><use xlink:href="#10"/></svg><svg x="5704"><use xlink:href="#a"/><use xlink:href="#b" x="-.004" y="4.317"/><use xlink:href="#10"/><use xlink:href="#11" y="2.171"/></svg><svg x="5796"><use xlink:href="#a"/><use xlink:href="#b" x="-.004" y="6.488"/><use xlink:href="#10"/><use xlink:href="#11" y="2.171"/></svg><svg x="5888"><use xlink:href="#a"/><use xlink:href="#b" x="-.004" y="8.659"/><use xlink:href="#10"/><use xlink:href="#11" y="2.171"/><use xlink:href="#12" y="6.513"/></svg><svg x="5980"><use xlink:href="#a"/><use xlink:href="#b" x="-.004" y="10.83"/><use xlink:href="#10"/><use xlink:href="#11" y="2.171"/><use xlink:href="#12" y="6.513"/><use xlink:href="#13" y="8.684"/></svg><svg x="6072"><use xlink:href="#a"/><use xlink:href="#b" x="-.004" y="13.001"/><use xlink:href="#10"/><use xlink:href="#11" y="2.171"/><use xlink:href="#12" y="6.513"/><use xlink:href="#13" y="8.684"/><use xlink:href="#14" y="10.855"/></svg><svg x="6164"><use xlink:href="#a"/><use xlink:href="#b" x="22.996" y="13.001"/><use xlink:href="#10"/><use xlink:href="#11" y="2.171"/><use xlink:href="#12" y="6.513"/><use xlink:href="#13" y="8.684"/><use xlink:href="#14" y="10.855"/><text y="14.696" class="i">…</text><text x="2.004" y="14.696" class="i">fetching</text><text x="11.022" y="14.696" class="i">GitHub</text><text x="18.036" y="14.696" class="i">state</text></svg><svg x="6256"><use xlink:href="#a"/><use xlink:href="#b" x="-.004" y="13.001"/><use xlink:href="#10"/><use xlink:href="#11" y="2.171"/><use xlink:href="#12" y="6.513"/><use xlink:href="#13" y="8.684"/><use xlink:href="#14" y="10.855"/></svg><svg x="6348"><use xlink:href="#a"/><use xlink:href="#b" x="-.004" y="15.172"/><use xlink:href="#10"/><use xlink:href="#11" y="2.171"/><use xlink:href="#12" y="6.513"/><use xlink:href="#13" y="8.684"/><use xlink:href="#14" y="10.855"/><use xlink:href="#15" y="13.026"/></svg><svg x="6440"><use xlink:href="#a"/><use xlink:href="#b" x="-.004" y="17.343"/><use xlink:href="#10"/><use xlink:href="#11" y="2.171"/><use xlink:href="#12" y="6.513"/><use xlink:href="#13" y="8.684"/><use xlink:href="#14" y="10.855"/><use xlink:href="#15" y="13.026"/></svg><svg x="6532"><use xlink:href="#a"/><use xlink:href="#b" x="-.004" y="19.514"/><use xlink:href="#10"/><use xlink:href="#11" y="2.171"/><use xlink:href="#12" y="6.513"/><use xlink:href="#13" y="8.684"/><use xlink:href="#14" y="10.855"/><use xlink:href="#15" y="13.026"/><use xlink:href="#16" y="17.368"/></svg><svg x="6624"><use xlink:href="#a"/><use xlink:href="#b" x="-.004" y="21.685"/><use xlink:href="#10"/><use xlink:href="#11" y="2.171"/><use xlink:href="#12" y="6.513"/><use xlink:href="#13" y="8.684"/><use xlink:href="#14" y="10.855"/><use xlink:href="#15" y="13.026"/><use xlink:href="#16" y="17.368"/><use xlink:href="#17" y="19.539"/></svg><svg x="6716"><use xlink:href="#a"/><use xlink:href="#b" x="-.004" y="23.856"/><use xlink:href="#10"/><use xlink:href="#11" y="2.171"/><use xlink:href="#12" y="6.513"/><use xlink:href="#13" y="8.684"/><use xlink:href="#14" y="10.855"/><use xlink:href="#15" y="13.026"/><use xlink:href="#16" y="17.368"/><use xlink:href="#17" y="19.539"/><use xlink:href="#18" y="21.71"/></svg><svg x="6808"><use xlink:href="#a"/><use xlink:href="#b" x="-.004" y="26.027"/><use xlink:href="#10"/><use xlink:href="#11" y="2.171"/><use xlink:href="#12" y="6.513"/><use xlink:href="#13" y="8.684"/><use xlink:href="#14" y="10.855"/><use xlink:href="#15" y="13.026"/><use xlink:href="#16" y="17.368"/><use xlink:href="#17" y="19.539"/><use xlink:href="#18" y="21.71"/></svg><svg x="6900"><use xlink:href="#a"/><use xlink:href="#b" x="-.004" y="28.198"/><use xlink:href="#10"/><use xlink:href="#11" y="2.171"/><use xlink:href="#12" y="6.513"/><use xlink:href="#13" y="8.684"/><use xlink:href="#14" y="10.855"/><use xlink:href="#15" y="13.026"/><use xlink:href="#16" y="17.368"/><use xlink:href="#17" y="19.539"/><use xlink:href="#18" y="21.71"/><use xlink:href="#19" y="26.052"/></svg><svg x="6992"><use xlink:href="#a"/><use xlink:href="#b" x="-.004" y="30.369"/><use xlink:href="#10"/><use xlink:href="#11" y="2.171"/><use xlink:href="#12" y="6.513"/><use xlink:href="#13" y="8.684"/><use xlink:href="#14" y="10.855"/><use xlink:href="#15" y="13.026"/><use xlink:href="#16" y="17.368"/><use xlink:href="#17" y="19.539"/><use xlink:href="#18" y="21.71"/><use xlink:href="#19" y="26.052"/><use xlink:href="#20" y="28.223"/></svg><svg x="7084"><use xlink:href="#a"/><use xlink:href="#b" x="-.004" y="32.54"/><use xlink:href="#10"/><use xlink:href="#11" y="2.171"/><use xlink:href="#12" y="6.513"/><use xlink:href="#13" y="8.684"/><use xlink:href="#14" y="10.855"/><use xlink:href="#15" y="13.026"/><use xlink:href="#16" y="17.368"/><use xlink:href="#17" y="19.539"/><use xlink:href="#18" y="21.71"/><use xlink:href="#19" y="26.052"/><use xlink:href="#20" y="28.223"/><use xlink:href="#21" y="30.394"/></svg><svg x="7176"><use xlink:href="#a"/><use xlink:href="#b" x="-.004" y="32.54"/><use xlink:href="#10"/><use xlink:href="#11" y="2.171"/><use xlink:href="#12" y="6.513"/><use xlink:href="#13" y="8.684"/><use xlink:href="#14" y="10.855"/><use xlink:href="#15" y="13.026"/><use xlink:href="#16" y="17.368"/><use xlink:href="#17" y="19.539"/><use xlink:href="#18" y="21.71"/><use xlink:href="#19" y="26.052"/><use xlink:href="#20" y="28.223"/><use xlink:href="#21" y="30.394"/></svg></svg></g></g></svg><rect x="0" y="569.62" width="996" height="4" fill="#282d38"/><rect x="0" y="569.62" width="0" height="4" fill="#4ec9b0"><animate attributeName="width" values="0;996" dur="14.091s" repeatCount="indefinite" calcMode="linear"/></rect></svg>