<svg xmlns="http://www.w3.org/2000/svg" xmlns:xlink="http://www.w3.org/1999/xlink" width="1076" height="7889.89"><rect width="1076" height="7889.89" rx="5" ry="5" class="a"/><svg y="0%" x="0%"><circle cx="20" cy="20" r="6" fill="#ff5f58"/><circle cx="40" cy="20" r="6" fill="#ffbd2e"/><circle cx="60" cy="20" r="6" fill="#18c132"/></svg><svg height="7793.89" viewBox="0 0 100 779.389" width="1000" x="33" xmlns="http://www.w3.org/2000/svg" xmlns:xlink="http://www.w3.org/1999/xlink" y="68"><style>.a{fill:#282d35}.f{fill:#b9c0cb;font-weight:700}.f,.g,.h,.i,.j{white-space:pre}.g{fill:#71bef2;font-weight:700}.h,.i,.j{fill:#a8cc8c}.i,.j{fill:#b9c0cb}.j{fill:#6f7783}</style><g font-family="Monaco,Consolas,Menlo,'Bitstream Vera Sans Mono','Powerline Symbols',monospace" font-size="1.67"><defs><symbol id="1"><text x="2.004" y="1.67" class="f">],</text></symbol><symbol id="2"><text x="4.008" y="1.67" class="f">{</text></symbol><symbol id="3"><text x="6.012" y="1.67" class="g">&quot;repo&quot;</text><text x="12.024" y="1.67" class="f">:</text><text x="14.028" y="1.67" class="h">&quot;owner/repo&quot;</text><text x="26.052" y="1.67" class="f">,</text></symbol><symbol id="4"><text x="4.008" y="1.67" class="f">}</text></symbol><symbol id="5"><text x="6.012" y="1.67" class="g">&quot;entity&quot;</text><text x="14.028" y="1.67" class="f">:</text><text x="16.032" y="1.67" class="h">&quot;pr&quot;</text><text x="20.04" y="1.67" class="f">,</text></symbol><symbol id="6"><text x="6.012" y="1.67" class="g">&quot;context&quot;</text><text x="15.03" y="1.67" class="f">:</text><text x="17.034" y="1.67" class="f">{</text></symbol><symbol id="7"><text x="6.012" y="1.67" class="f">},</text></symbol><symbol id="8"><text x="6.012" y="1.67" class="g">&quot;classes&quot;</text><text x="15.03" y="1.67" class="f">:</text><text x="17.034" y="1.67" class="f">[</text></symbol><symbol id="9"><text x="6.012" y="1.67" class="f">],</text></symbol><symbol id="10"><text x="6.012" y="1.67" class="g">&quot;from&quot;</text><text x="12.024" y="1.67" class="f">:</text><text x="14.028" y="1.67" class="f">{</text></symbol><symbol id="11"><text x="8.016" y="1.67" class="g">&quot;fingerprint&quot;</text><text x="21.042" y="1.67" class="f">:</text><text x="23.046" y="1.67" class="f">{</text></symbol><symbol id="12"><text x="10.02" y="1.67" class="g">&quot;state&quot;</text><text x="17.034" y="1.67" class="f">:</text><text x="19.038" y="1.67" class="h">&quot;open&quot;</text><text x="25.05" y="1.67" class="f">,</text></symbol><symbol id="13"><text x="10.02" y="1.67" class="g">&quot;checks&quot;</text><text x="18.036" y="1.67" class="f">:</text><text x="20.04" y="1.67" class="f">[</text></symbol><symbol id="14"><text x="12.024" y="1.67" class="f">{</text></symbol><symbol id="15"><text x="14.028" y="1.67" class="g">&quot;name&quot;</text><text x="20.04" y="1.67" class="f">:</text><text x="22.044" y="1.67" class="h">&quot;build&quot;</text><text x="29.058" y="1.67" class="f">,</text></symbol><symbol id="16"><text x="14.028" y="1.67" class="g">&quot;kind&quot;</text><text x="20.04" y="1.67" class="f">:</text><text x="22.044" y="1.67" class="h">&quot;check&quot;</text><text x="29.058" y="1.67" class="f">,</text></symbol><symbol id="17"><text x="14.028" y="1.67" class="g">&quot;status&quot;</text><text x="22.044" y="1.67" class="f">:</text><text x="24.048" y="1.67" class="h">&quot;completed&quot;</text><text x="35.07" y="1.67" class="f">,</text></symbol><symbol id="18"><text x="14.028" y="1.67" class="g">&quot;conclusion&quot;</text><text x="26.052" y="1.67" class="f">:</text><text x="28.056" y="1.67" class="h">&quot;failure&quot;</text><text x="37.074" y="1.67" class="f">,</text></symbol><symbol id="19"><text x="14.028" y="1.67" class="g">&quot;detailsUrl&quot;</text><text x="26.052" y="1.67" class="f">:</text><text x="28.056" y="1.67" class="h">&quot;https://github.com/owner/repo/actions/runs/1234567890/job/2345678901&quot;</text><text x="98.196" y="1.67" class="f">,</text></symbol><symbol id="20"><text x="14.028" y="1.67" class="g">&quot;runId&quot;</text><text x="21.042" y="1.67" class="f">:</text><text x="23.046" y="1.67" class="h">&quot;1234567890&quot;</text><text x="35.07" y="1.67" class="f">,</text></symbol><symbol id="21"><text x="14.028" y="1.67" class="g">&quot;jobId&quot;</text><text x="21.042" y="1.67" class="f">:</text><text x="23.046" y="1.67" class="h">&quot;2345678901&quot;</text></symbol><symbol id="22"><text x="12.024" y="1.67" class="f">}</text></symbol><symbol id="23"><text x="10.02" y="1.67" class="f">],</text></symbol><symbol id="24"><text x="10.02" y="1.67" class="g">&quot;reviews&quot;</text><text x="19.038" y="1.67" class="f">:</text><text x="21.042" y="1.67" class="f">[</text></symbol><symbol id="25"><text x="14.028" y="1.67" class="g">&quot;id&quot;</text><text x="18.036" y="1.67" class="f">:</text><text x="20.04" y="1.67" class="h">&quot;PRR_9f8e&quot;</text><text x="30.06" y="1.67" class="f">,</text></symbol><symbol id="26"><text x="14.028" y="1.67" class="g">&quot;author&quot;</text><text x="22.044" y="1.67" class="f">:</text><text x="24.048" y="1.67" class="h">&quot;bob&quot;</text><text x="29.058" y="1.67" class="f">,</text></symbol><symbol id="27"><text x="14.028" y="1.67" class="g">&quot;state&quot;</text><text x="21.042" y="1.67" class="f">:</text><text x="23.046" y="1.67" class="h">&quot;changes_requested&quot;</text><text x="42.084" y="1.67" class="f">,</text></symbol><symbol id="28"><text x="14.028" y="1.67" class="g">&quot;submittedAt&quot;</text><text x="27.054" y="1.67" class="f">:</text><text x="29.058" y="1.67" class="h">&quot;2026-06-30T09:00:00Z&quot;</text><text x="51.102" y="1.67" class="f">,</text></symbol><symbol id="29"><text x="14.028" y="1.67" class="g">&quot;commit&quot;</text><text x="22.044" y="1.67" class="f">:</text><text x="24.048" y="1.67" class="h">&quot;a1b2c3&quot;</text></symbol><symbol id="30"><text x="12.024" y="1.67" class="h">&quot;alice&quot;</text></symbol><symbol id="31"><text x="10.02" y="1.67" class="f">]</text></symbol><symbol id="32"><text x="8.016" y="1.67" class="f">},</text></symbol><symbol id="33"><text x="8.016" y="1.67" class="g">&quot;context&quot;</text><text x="17.034" y="1.67" class="f">:</text><text x="19.038" y="1.67" class="f">{</text></symbol><symbol id="34"><text x="10.02" y="1.67" class="g">&quot;id&quot;</text><text x="14.028" y="1.67" class="f">:</text><text x="16.032" y="1.67" class="h">&quot;PR_pr42&quot;</text><text x="25.05" y="1.67" class="f">,</text></symbol><symbol id="35"><text x="10.02" y="1.67" class="g">&quot;title&quot;</text><text x="17.034" y="1.67" class="f">:</text><text x="19.038" y="1.67" class="h">&quot;Add</text><text x="24.048" y="1.67" class="h">billing</text><text x="32.064" y="1.67" class="h">webhook&quot;</text><text x="40.08" y="1.67" class="f">,</text></symbol><symbol id="36"><text x="10.02" y="1.67" class="g">&quot;headRefName&quot;</text><text x="23.046" y="1.67" class="f">:</text><text x="25.05" y="1.67" class="h">&quot;feature/billing-webhook&quot;</text><text x="50.1" y="1.67" class="f">,</text></symbol><symbol id="37"><text x="10.02" y="1.67" class="g">&quot;author&quot;</text><text x="18.036" y="1.67" class="f">:</text><text x="20.04" y="1.67" class="h">&quot;alice&quot;</text><text x="27.054" y="1.67" class="f">,</text></symbol><symbol id="38"><text x="10.02" y="1.67" class="g">&quot;createdAt&quot;</text><text x="21.042" y="1.67" class="f">:</text><text x="23.046" y="1.67" class="h">&quot;2026-06-28T09:00:00Z&quot;</text><text x="45.09" y="1.67" class="f">,</text></symbol><symbol id="39"><text x="10.02" y="1.67" class="g">&quot;url&quot;</text><text x="15.03" y="1.67" class="f">:</text><text x="17.034" y="1.67" class="h">&quot;https://github.com/owner/repo/pull/42&quot;</text></symbol><symbol id="40"><text x="8.016" y="1.67" class="g">&quot;meta&quot;</text><text x="14.028" y="1.67" class="f">:</text><text x="16.032" y="1.67" class="f">{</text></symbol><symbol id="41"><text x="10.02" y="1.67" class="g">&quot;seenAt&quot;</text><text x="18.036" y="1.67" class="f">:</text><text x="20.04" y="1.67" class="h">&quot;2026-07-01T12:05:00.000Z&quot;</text><text x="46.092" y="1.67" class="f">,</text></symbol><symbol id="42"><text x="10.02" y="1.67" class="g">&quot;changedAt&quot;</text><text x="21.042" y="1.67" class="f">:</text><text x="23.046" y="1.67" class="h">&quot;2026-07-01T12:05:00.000Z&quot;</text><text x="49.098" y="1.67" class="f">,</text></symbol><symbol id="43"><text x="10.02" y="1.67" class="g">&quot;ticksSinceChange&quot;</text><text x="28.056" y="1.67" class="f">:</text><text x="30.06" y="1.67" class="i">0</text><text x="31.062" y="1.67" class="f">,</text></symbol><symbol id="44"><text x="10.02" y="1.67" class="g">&quot;missingTicks&quot;</text><text x="24.048" y="1.67" class="f">:</text><text x="26.052" y="1.67" class="i">0</text><text x="27.054" y="1.67" class="f">,</text></symbol><symbol id="45"><text x="10.02" y="1.67" class="g">&quot;staleEmittedFor&quot;</text><text x="27.054" y="1.67" class="f">:</text><text x="29.058" y="1.67" class="j">null</text></symbol><symbol id="46"><text x="8.016" y="1.67" class="f">}</text></symbol><symbol id="47"><text x="6.012" y="1.67" class="g">&quot;to&quot;</text><text x="10.02" y="1.67" class="f">:</text><text x="12.024" y="1.67" class="f">{</text></symbol><symbol id="48"><text x="14.028" y="1.67" class="g">&quot;conclusion&quot;</text><text x="26.052" y="1.67" class="f">:</text><text x="28.056" y="1.67" class="h">&quot;success&quot;</text><text x="37.074" y="1.67" class="f">,</text></symbol><symbol id="49"><text x="14.028" y="1.67" class="g">&quot;detailsUrl&quot;</text><text x="26.052" y="1.67" class="f">:</text><text x="28.056" y="1.67" class="h">&quot;https://github.com/owner/repo/actions/runs/1234567891/job/2345678902&quot;</text><text x="98.196" y="1.67" class="f">,</text></symbol><symbol id="50"><text x="14.028" y="1.67" class="g">&quot;runId&quot;</text><text x="21.042" y="1.67" class="f">:</text><text x="23.046" y="1.67" class="h">&quot;1234567891&quot;</text><text x="35.07" y="1.67" class="f">,</text></symbol><symbol id="51"><text x="14.028" y="1.67" class="g">&quot;jobId&quot;</text><text x="21.042" y="1.67" class="f">:</text><text x="23.046" y="1.67" class="h">&quot;2345678902&quot;</text></symbol><symbol id="52"><text x="14.028" y="1.67" class="g">&quot;id&quot;</text><text x="18.036" y="1.67" class="f">:</text><text x="20.04" y="1.67" class="h">&quot;PRR_2c1d&quot;</text><text x="30.06" y="1.67" class="f">,</text></symbol><symbol id="53"><text x="14.028" y="1.67" class="g">&quot;state&quot;</text><text x="21.042" y="1.67" class="f">:</text><text x="23.046" y="1.67" class="h">&quot;approved&quot;</text><text x="33.066" y="1.67" class="f">,</text></symbol><symbol id="54"><text x="14.028" y="1.67" class="g">&quot;submittedAt&quot;</text><text x="27.054" y="1.67" class="f">:</text><text x="29.058" y="1.67" class="h">&quot;2026-07-01T12:00:00Z&quot;</text><text x="51.102" y="1.67" class="f">,</text></symbol><symbol id="55"><text x="14.028" y="1.67" class="g">&quot;commit&quot;</text><text x="22.044" y="1.67" class="f">:</text><text x="24.048" y="1.67" class="h">&quot;d4e5f6&quot;</text></symbol><symbol id="56"><text x="10.02" y="1.67" class="g">&quot;from&quot;</text><text x="16.032" y="1.67" class="f">:</text><text x="18.036" y="1.67" class="h">&quot;changes_requested&quot;</text><text x="37.074" y="1.67" class="f">,</text></symbol><symbol id="57"><text x="10.02" y="1.67" class="g">&quot;to&quot;</text><text x="14.028" y="1.67" class="f">:</text><text x="16.032" y="1.67" class="h">&quot;approved&quot;</text></symbol><symbol id="58"><text x="10.02" y="1.67" class="g">&quot;removed&quot;</text><text x="19.038" y="1.67" class="f">:</text><text x="21.042" y="1.67" class="f">[</text></symbol><symbol id="59"><text x="10.02" y="1.67" class="g">&quot;added&quot;</text><text x="17.034" y="1.67" class="f">:</text><text x="19.038" y="1.67" class="f">[</text></symbol><symbol id="60"><text x="6.012" y="1.67" class="g">&quot;summary&quot;</text><text x="15.03" y="1.67" class="f">:</text><text x="17.034" y="1.67" class="f">{</text></symbol><symbol id="61"><text x="8.016" y="1.67" class="g">&quot;mergeable&quot;</text><text x="19.038" y="1.67" class="f">:</text><text x="21.042" y="1.67" class="h">&quot;unknown&quot;</text><text x="30.06" y="1.67" class="f">,</text></symbol><symbol id="62"><text x="8.016" y="1.67" class="g">&quot;mergeStateStatus&quot;</text><text x="26.052" y="1.67" class="f">:</text><text x="28.056" y="1.67" class="h">&quot;unknown&quot;</text><text x="37.074" y="1.67" class="f">,</text></symbol><symbol id="63"><text x="8.016" y="1.67" class="g">&quot;state&quot;</text><text x="15.03" y="1.67" class="f">:</text><text x="17.034" y="1.67" class="h">&quot;open&quot;</text><text x="23.046" y="1.67" class="f">,</text></symbol><symbol id="64"><text x="8.016" y="1.67" class="g">&quot;isDraft&quot;</text><text x="17.034" y="1.67" class="f">:</text><text x="19.038" y="1.67" class="i">false</text><text x="24.048" y="1.67" class="f">,</text></symbol><symbol id="65"><text x="8.016" y="1.67" class="g">&quot;unresolvedReviewThreads&quot;</text><text x="33.066" y="1.67" class="f">:</text><text x="35.07" y="1.67" class="i">0</text><text x="36.072" y="1.67" class="f">,</text></symbol><symbol id="66"><text x="8.016" y="1.67" class="g">&quot;failedChecks&quot;</text><text x="22.044" y="1.67" class="f">:</text><text x="24.048" y="1.67" class="f">[]</text></symbol><symbol id="67"><text x="6.012" y="1.67" class="g">&quot;details&quot;</text><text x="15.03" y="1.67" class="f">:</text><text x="17.034" y="1.67" class="f">[</text></symbol><symbol id="68"><text x="8.016" y="1.67" class="f">{</text></symbol><symbol id="69"><text x="10.02" y="1.67" class="g">&quot;from&quot;</text><text x="16.032" y="1.67" class="f">:</text><text x="18.036" y="1.67" class="f">[</text></symbol><symbol id="70"><text x="10.02" y="1.67" class="g">&quot;to&quot;</text><text x="14.028" y="1.67" class="f">:</text><text x="16.032" y="1.67" class="f">[</text></symbol><symbol id="71"><text x="10.02" y="1.67" class="g">&quot;added&quot;</text><text x="17.034" y="1.67" class="f">:</text><text x="19.038" y="1.67" class="f">[],</text></symbol><symbol id="72"><text x="16.032" y="1.67" class="g">&quot;kind&quot;</text><text x="22.044" y="1.67" class="f">:</text><text x="24.048" y="1.67" class="h">&quot;check&quot;</text><text x="31.062" y="1.67" class="f">,</text></symbol><symbol id="73"><text x="16.032" y="1.67" class="g">&quot;status&quot;</text><text x="24.048" y="1.67" class="f">:</text><text x="26.052" y="1.67" class="h">&quot;completed&quot;</text><text x="37.074" y="1.67" class="f">,</text></symbol><symbol id="74"><text y="1.67" class="f">,</text></symbol><symbol id="75"><text x="10.02" y="1.67" class="g">&quot;class&quot;</text><text x="17.034" y="1.67" class="f">:</text><text x="19.038" y="1.67" class="h">&quot;review-changed&quot;</text><text x="35.07" y="1.67" class="f">,</text></symbol><symbol id="76"><text x="6.012" y="1.67" class="f">]</text></symbol><symbol id="77"><text x="10.02" y="1.67" class="g">&quot;headSha&quot;</text><text x="19.038" y="1.67" class="f">:</text><text x="21.042" y="1.67" class="h">&quot;d0c5&quot;</text></symbol><symbol id="78"><text x="10.02" y="1.67" class="g">&quot;id&quot;</text><text x="14.028" y="1.67" class="f">:</text><text x="16.032" y="1.67" class="h">&quot;PR_pr88&quot;</text><text x="25.05" y="1.67" class="f">,</text></symbol><symbol id="79"><text x="10.02" y="1.67" class="g">&quot;title&quot;</text><text x="17.034" y="1.67" class="f">:</text><text x="19.038" y="1.67" class="h">&quot;Refresh</text><text x="28.056" y="1.67" class="h">release</text><text x="36.072" y="1.67" class="h">notes&quot;</text><text x="42.084" y="1.67" class="f">,</text></symbol><symbol id="80"><text x="10.02" y="1.67" class="g">&quot;headRefName&quot;</text><text x="23.046" y="1.67" class="f">:</text><text x="25.05" y="1.67" class="h">&quot;docs/release-notes&quot;</text><text x="45.09" y="1.67" class="f">,</text></symbol><symbol id="81"><text x="10.02" y="1.67" class="g">&quot;author&quot;</text><text x="18.036" y="1.67" class="f">:</text><text x="20.04" y="1.67" class="h">&quot;bob&quot;</text><text x="25.05" y="1.67" class="f">,</text></symbol><symbol id="82"><text x="10.02" y="1.67" class="g">&quot;createdAt&quot;</text><text x="21.042" y="1.67" class="f">:</text><text x="23.046" y="1.67" class="h">&quot;2026-06-25T09:00:00Z&quot;</text><text x="45.09" y="1.67" class="f">,</text></symbol><symbol id="83"><text x="10.02" y="1.67" class="g">&quot;url&quot;</text><text x="15.03" y="1.67" class="f">:</text><text x="17.034" y="1.67" class="h">&quot;https://github.com/owner/repo/pull/88&quot;</text></symbol><symbol id="a"><path fill="transparent" d="M0 0h100v359H0z"/></symbol><symbol id="b"><path fill="#6f7683" d="M0 0h1.102v2.171H0z"/></symbol></defs><path class="a" d="M0 0h100v779.389H0z"/><svg width="100"><svg><use xlink:href="#a"/><use xlink:href="#b" x="1.996" y="777.193"/><text y="1.67" class="f">{</text><text x="2.004" y="3.841" class="g">&quot;schemaVersion&quot;</text><text x="17.034" y="3.841" class="f">:</text><text x="19.038" y="3.841" class="i">2</text><text x="20.04" y="3.841" class="f">,</text><text x="2.004" y="6.012" class="g">&quot;detectedAt&quot;</text><text x="14.028" y="6.012" class="f">:</text><text x="16.032" y="6.012" class="h">&quot;2026-07-01T12:05:00.000Z&quot;</text><text x="42.084" y="6.012" class="f">,</text><text x="2.004" y="8.183" class="g">&quot;monitorId&quot;</text><text x="13.026" y="8.183" class="f">:</text><text x="15.03" y="8.183" class="h">&quot;host-9c1f7b2a4e83&quot;</text><text x="34.068" y="8.183" class="f">,</text><text x="2.004" y="10.354" class="g">&quot;entities&quot;</text><text x="12.024" y="10.354" class="f">:</text><text x="14.028" y="10.354" class="f">[</text><text x="4.008" y="12.525" class="h">&quot;pr&quot;</text><text x="8.016" y="12.525" class="f">,</text><text x="4.008" y="14.696" class="h">&quot;issue&quot;</text><use xlink:href="#1" y="15.197"/><text x="2.004" y="19.038" class="g">&quot;repos&quot;</text><text x="9.018" y="19.038" class="f">:</text><text x="11.022" y="19.038" class="f">[</text><text x="4.008" y="21.209" class="h">&quot;owner/repo&quot;</text><use xlink:href="#1" y="21.71"/><text x="2.004" y="25.551" class="g">&quot;results&quot;</text><text x="11.022" y="25.551" class="f">:</text><text x="13.026" y="25.551" class="f">[</text><use xlink:href="#2" y="26.052"/><use xlink:href="#3" y="28.223"/><text x="6.012" y="32.064" class="g">&quot;baseline&quot;</text><text x="16.032" y="32.064" class="f">:</text><text x="18.036" y="32.064" class="i">false</text><text x="23.046" y="32.064" class="f">,</text><text x="6.012" y="34.235" class="g">&quot;repoSource&quot;</text><text x="18.036" y="34.235" class="f">:</text><text x="20.04" y="34.235" class="h">&quot;flag&quot;</text><text x="26.052" y="34.235" class="f">,</text><text x="6.012" y="36.406" class="g">&quot;stateFile&quot;</text><text x="17.034" y="36.406" class="f">:</text><text x="19.038" y="36.406" class="h">&quot;/tmp/gh-delta-user/repo-owner%2Frepo__monitor-host-9c1f7b2a4e83__pr-issue.json&quot;</text><text x="99.198" y="36.406" class="f">,</text><text x="6.012" y="38.577" class="g">&quot;rateLimit&quot;</text><text x="17.034" y="38.577" class="f">:</text><text x="19.038" y="38.577" class="j">null</text><use xlink:href="#4" y="39.078"/><use xlink:href="#1" y="41.249"/><text x="2.004" y="45.09" class="g">&quot;deltas&quot;</text><text x="10.02" y="45.09" class="f">:</text><text x="12.024" y="45.09" class="f">[</text><use xlink:href="#2" y="45.591"/><text x="6.012" y="49.432" class="g">&quot;id&quot;</text><text x="10.02" y="49.432" class="f">:</text><text x="12.024" y="49.432" class="h">&quot;147e3fbaf09b1f06ad83ece8ca6391788a7e82eb57e12525cf86da0623372460&quot;</text><text x="78.156" y="49.432" class="f">,</text><use xlink:href="#3" y="49.933"/><use xlink:href="#5" y="52.104"/><text x="6.012" y="55.945" class="g">&quot;number&quot;</text><text x="14.028" y="55.945" class="f">:</text><text x="16.032" y="55.945" class="i">42</text><text x="18.036" y="55.945" class="f">,</text><use xlink:href="#6" y="56.446"/><text x="8.016" y="60.287" class="g">&quot;id&quot;</text><text x="12.024" y="60.287" class="f">:</text><text x="14.028" y="60.287" class="h">&quot;PR_pr42&quot;</text><text x="23.046" y="60.287" class="f">,</text><text x="8.016" y="62.458" class="g">&quot;title&quot;</text><text x="15.03" y="62.458" class="f">:</text><text x="17.034" y="62.458" class="h">&quot;Add</text><text x="22.044" y="62.458" class="h">billing</text><text x="30.06" y="62.458" class="h">webhook&quot;</text><text x="38.076" y="62.458" class="f">,</text><text x="8.016" y="64.629" class="g">&quot;headRefName&quot;</text><text x="21.042" y="64.629" class="f">:</text><text x="23.046" y="64.629" class="h">&quot;feature/billing-webhook&quot;</text><text x="48.096" y="64.629" class="f">,</text><text x="8.016" y="66.8" class="g">&quot;author&quot;</text><text x="16.032" y="66.8" class="f">:</text><text x="18.036" y="66.8" class="h">&quot;alice&quot;</text><text x="25.05" y="66.8" class="f">,</text><text x="8.016" y="68.971" class="g">&quot;createdAt&quot;</text><text x="19.038" y="68.971" class="f">:</text><text x="21.042" y="68.971" class="h">&quot;2026-06-28T09:00:00Z&quot;</text><text x="43.086" y="68.971" class="f">,</text><text x="8.016" y="71.142" class="g">&quot;url&quot;</text><text x="13.026" y="71.142" class="f">:</text><text x="15.03" y="71.142" class="h">&quot;https://github.com/owner/repo/pull/42&quot;</text><use xlink:href="#7" y="71.643"/><use xlink:href="#8" y="73.814"/><text x="8.016" y="77.655" class="h">&quot;ci-changed&quot;</text><text x="20.04" y="77.655" class="f">,</text><text x="8.016" y="79.826" class="h">&quot;review-changed&quot;</text><text x="24.048" y="79.826" class="f">,</text><text x="8.016" y="81.997" class="h">&quot;review-requests-changed&quot;</text><use xlink:href="#9" y="82.498"/><use xlink:href="#10" y="84.669"/><use xlink:href="#11" y="86.84"/><use xlink:href="#12" y="89.011"/><use xlink:href="#13" y="91.182"/><use xlink:href="#14" y="93.353"/><use xlink:href="#15" y="95.524"/><use xlink:href="#16" y="97.695"/><use xlink:href="#17" y="99.866"/><use xlink:href="#18" y="102.037"/><use xlink:href="#19" y="104.208"/><use xlink:href="#20" y="106.379"/><use xlink:href="#21" y="108.55"/><use xlink:href="#22" y="110.721"/><use xlink:href="#23" y="112.892"/><text x="10.02" y="116.733" class="g">&quot;reviewDecision&quot;</text><text x="26.052" y="116.733" class="f">:</text><text x="28.056" y="116.733" class="h">&quot;changes_requested&quot;</text><text x="47.094" y="116.733" class="f">,</text><use xlink:href="#24" y="117.234"/><use xlink:href="#14" y="119.405"/><use xlink:href="#25" y="121.576"/><use xlink:href="#26" y="123.747"/><use xlink:href="#27" y="125.918"/><use xlink:href="#28" y="128.089"/><use xlink:href="#29" y="130.26"/><use xlink:href="#22" y="132.431"/><use xlink:href="#23" y="134.602"/><text x="10.02" y="138.443" class="g">&quot;reviewRequests&quot;</text><text x="26.052" y="138.443" class="f">:</text><text x="28.056" y="138.443" class="f">[</text><use xlink:href="#30" y="138.944"/><use xlink:href="#31" y="141.115"/><use xlink:href="#32" y="143.286"/><use xlink:href="#33" y="145.457"/><use xlink:href="#34" y="147.628"/><use xlink:href="#35" y="149.799"/><use xlink:href="#36" y="151.97"/><use xlink:href="#37" y="154.141"/><use xlink:href="#38" y="156.312"/><use xlink:href="#39" y="158.483"/><use xlink:href="#32" y="160.654"/><use xlink:href="#40" y="162.825"/><use xlink:href="#41" y="164.996"/><use xlink:href="#42" y="167.167"/><use xlink:href="#43" y="169.338"/><use xlink:href="#44" y="171.509"/><use xlink:href="#45" y="173.68"/><use xlink:href="#46" y="175.851"/><use xlink:href="#7" y="178.022"/><use xlink:href="#47" y="180.193"/><use xlink:href="#11" y="182.364"/><use xlink:href="#12" y="184.535"/><use xlink:href="#13" y="186.706"/><use xlink:href="#14" y="188.877"/><use xlink:href="#15" y="191.048"/><use xlink:href="#16" y="193.219"/><use xlink:href="#17" y="195.39"/><use xlink:href="#48" y="197.561"/><use xlink:href="#49" y="199.732"/><use xlink:href="#50" y="201.903"/><use xlink:href="#51" y="204.074"/><use xlink:href="#22" y="206.245"/><use xlink:href="#23" y="208.416"/><text x="10.02" y="212.257" class="g">&quot;reviewDecision&quot;</text><text x="26.052" y="212.257" class="f">:</text><text x="28.056" y="212.257" class="h">&quot;approved&quot;</text><text x="38.076" y="212.257" class="f">,</text><use xlink:href="#24" y="212.758"/><use xlink:href="#14" y="214.929"/><use xlink:href="#52" y="217.1"/><use xlink:href="#26" y="219.271"/><use xlink:href="#53" y="221.442"/><use xlink:href="#54" y="223.613"/><use xlink:href="#55" y="225.784"/><use xlink:href="#22" y="227.955"/><use xlink:href="#23" y="230.126"/><text x="10.02" y="233.967" class="g">&quot;reviewRequests&quot;</text><text x="26.052" y="233.967" class="f">:</text><text x="28.056" y="233.967" class="f">[]</text><use xlink:href="#32" y="234.468"/><use xlink:href="#33" y="236.639"/><use xlink:href="#34" y="238.81"/><use xlink:href="#35" y="240.981"/><use xlink:href="#36" y="243.152"/><use xlink:href="#37" y="245.323"/><use xlink:href="#38" y="247.494"/><use xlink:href="#39" y="249.665"/><use xlink:href="#32" y="251.836"/><use xlink:href="#40" y="254.007"/><use xlink:href="#41" y="256.178"/><use xlink:href="#42" y="258.349"/><use xlink:href="#43" y="260.52"/><use xlink:href="#44" y="262.691"/><use xlink:href="#45" y="264.862"/><use xlink:href="#46" y="267.033"/><use xlink:href="#7" y="269.204"/><text x="6.012" y="273.045" class="g">&quot;changed&quot;</text><text x="15.03" y="273.045" class="f">:</text><text x="17.034" y="273.045" class="f">{</text><text x="8.016" y="275.216" class="g">&quot;checks&quot;</text><text x="16.032" y="275.216" class="f">:</text><text x="18.036" y="275.216" class="f">{</text><text x="10.02" y="277.387" class="g">&quot;fixed&quot;</text><text x="17.034" y="277.387" class="f">:</text><text x="19.038" y="277.387" class="f">[</text><text x="12.024" y="279.558" class="h">&quot;build&quot;</text><use xlink:href="#31" y="280.059"/><use xlink:href="#32" y="282.23"/><text x="8.016" y="286.071" class="g">&quot;reviewDecision&quot;</text><text x="24.048" y="286.071" class="f">:</text><text x="26.052" y="286.071" class="f">{</text><use xlink:href="#56" y="286.572"/><use xlink:href="#57" y="288.743"/><use xlink:href="#32" y="290.914"/><text x="8.016" y="294.755" class="g">&quot;reviewRequests&quot;</text><text x="24.048" y="294.755" class="f">:</text><text x="26.052" y="294.755" class="f">{</text><use xlink:href="#58" y="295.256"/><use xlink:href="#30" y="297.427"/><use xlink:href="#31" y="299.598"/><use xlink:href="#32" y="301.769"/><text x="8.016" y="305.61" class="g">&quot;reviews&quot;</text><text x="17.034" y="305.61" class="f">:</text><text x="19.038" y="305.61" class="f">{</text><use xlink:href="#59" y="306.111"/><text x="12.024" y="309.952" class="h">&quot;PRR_2c1d&quot;</text><use xlink:href="#23" y="310.453"/><use xlink:href="#58" y="312.624"/><text x="12.024" y="316.465" class="h">&quot;PRR_9f8e&quot;</text><use xlink:href="#31" y="316.966"/><use xlink:href="#46" y="319.137"/><use xlink:href="#7" y="321.308"/><use xlink:href="#60" y="323.479"/><text x="8.016" y="327.32" class="g">&quot;ciRollup&quot;</text><text x="18.036" y="327.32" class="f">:</text><text x="20.04" y="327.32" class="h">&quot;green&quot;</text><text x="27.054" y="327.32" class="f">,</text><text x="8.016" y="329.491" class="g">&quot;reviewDecision&quot;</text><text x="24.048" y="329.491" class="f">:</text><text x="26.052" y="329.491" class="h">&quot;approved&quot;</text><text x="36.072" y="329.491" class="f">,</text><use xlink:href="#61" y="329.992"/><use xlink:href="#62" y="332.163"/><use xlink:href="#63" y="334.334"/><use xlink:href="#64" y="336.505"/><use xlink:href="#65" y="338.676"/><text x="8.016" y="342.517" class="g">&quot;headSha&quot;</text><text x="17.034" y="342.517" class="f">:</text><text x="19.038" y="342.517" class="h">&quot;&quot;</text><text x="21.042" y="342.517" class="f">,</text><use xlink:href="#66" y="343.018"/><use xlink:href="#7" y="345.189"/><text x="6.012" y="349.03" class="g">&quot;summaryLine&quot;</text><text x="19.038" y="349.03" class="f">:</text><text x="21.042" y="349.03" class="h">&quot;PR</text><text x="25.05" y="349.03" class="h">#42</text><text x="29.058" y="349.03" class="h">\&quot;Add</text><text x="35.07" y="349.03" class="h">billing</text><text x="43.086" y="349.03" class="h">webhook\&quot;:</text><text x="54.108" y="349.03" class="h">ci-changed,</text><text x="66.132" y="349.03" class="h">review-changed,</text><text x="82.164" y="349.03" class="h">review-requests-ch</text><text y="351.201" class="h">anged&quot;</text><text x="6.012" y="351.201" class="f">,</text><use xlink:href="#67" y="351.702"/><use xlink:href="#68" y="353.873"/><text x="10.02" y="357.714" class="g">&quot;class&quot;</text><text x="17.034" y="357.714" class="f">:</text><text x="19.038" y="357.714" class="h">&quot;ci-changed&quot;</text><text x="31.062" y="357.714" class="f">,</text><text x="10.02" y="359.885" class="g">&quot;field&quot;</text><text x="17.034" y="359.885" class="f">:</text><text x="19.038" y="359.885" class="h">&quot;checks&quot;</text><text x="27.054" y="359.885" class="f">,</text><use xlink:href="#69" y="360.386"/><use xlink:href="#14" y="362.557"/><use xlink:href="#15" y="364.728"/><use xlink:href="#16" y="366.899"/><use xlink:href="#17" y="369.07"/><use xlink:href="#18" y="371.241"/><use xlink:href="#19" y="373.412"/><use xlink:href="#20" y="375.583"/><use xlink:href="#21" y="377.754"/><use xlink:href="#22" y="379.925"/><use xlink:href="#23" y="382.096"/><use xlink:href="#70" y="384.267"/><use xlink:href="#14" y="386.438"/><use xlink:href="#15" y="388.609"/><use xlink:href="#16" y="390.78"/><use xlink:href="#17" y="392.951"/><use xlink:href="#48" y="395.122"/><use xlink:href="#49" y="397.293"/><use xlink:href="#50" y="399.464"/><use xlink:href="#51" y="401.635"/><use xlink:href="#22" y="403.806"/><use xlink:href="#23" y="405.977"/><use xlink:href="#71" y="408.148"/><text x="10.02" y="411.989" class="g">&quot;removed&quot;</text><text x="19.038" y="411.989" class="f">:</text><text x="21.042" y="411.989" class="f">[],</text><text x="10.02" y="414.16" class="g">&quot;changed&quot;</text><text x="19.038" y="414.16" class="f">:</text><text x="21.042" y="414.16" class="f">[</text><use xlink:href="#14" y="414.661"/><use xlink:href="#15" y="416.832"/><text x="14.028" y="420.673" class="g">&quot;from&quot;</text><text x="20.04" y="420.673" class="f">:</text><text x="22.044" y="420.673" class="f">{</text><use xlink:href="#72" y="421.174"/><use xlink:href="#73" y="423.345"/><text x="16.032" y="427.186" class="g">&quot;conclusion&quot;</text><text x="28.056" y="427.186" class="f">:</text><text x="30.06" y="427.186" class="h">&quot;failure&quot;</text><text x="39.078" y="427.186" class="f">,</text><text x="16.032" y="429.357" class="g">&quot;detailsUrl&quot;</text><text x="28.056" y="429.357" class="f">:</text><text x="30.06" y="429.357" class="h">&quot;https://github.com/owner/repo/actions/runs/1234567890/job/2345678901&quot;</text><use xlink:href="#74" y="429.858"/><text x="16.032" y="433.699" class="g">&quot;runId&quot;</text><text x="23.046" y="433.699" class="f">:</text><text x="25.05" y="433.699" class="h">&quot;1234567890&quot;</text><text x="37.074" y="433.699" class="f">,</text><text x="16.032" y="435.87" class="g">&quot;jobId&quot;</text><text x="23.046" y="435.87" class="f">:</text><text x="25.05" y="435.87" class="h">&quot;2345678901&quot;</text><text x="14.028" y="438.041" class="f">},</text><text x="14.028" y="440.212" class="g">&quot;to&quot;</text><text x="18.036" y="440.212" class="f">:</text><text x="20.04" y="440.212" class="f">{</text><use xlink:href="#72" y="440.713"/><use xlink:href="#73" y="442.884"/><text x="16.032" y="446.725" class="g">&quot;conclusion&quot;</text><text x="28.056" y="446.725" class="f">:</text><text x="30.06" y="446.725" class="h">&quot;success&quot;</text><text x="39.078" y="446.725" class="f">,</text><text x="16.032" y="448.896" class="g">&quot;detailsUrl&quot;</text><text x="28.056" y="448.896" class="f">:</text><text x="30.06" y="448.896" class="h">&quot;https://github.com/owner/repo/actions/runs/1234567891/job/2345678902&quot;</text><use xlink:href="#74" y="449.397"/><text x="16.032" y="453.238" class="g">&quot;runId&quot;</text><text x="23.046" y="453.238" class="f">:</text><text x="25.05" y="453.238" class="h">&quot;1234567891&quot;</text><text x="37.074" y="453.238" class="f">,</text><text x="16.032" y="455.409" class="g">&quot;jobId&quot;</text><text x="23.046" y="455.409" class="f">:</text><text x="25.05" y="455.409" class="h">&quot;2345678902&quot;</text><text x="14.028" y="457.58" class="f">}</text><use xlink:href="#22" y="458.081"/><use xlink:href="#31" y="460.252"/><use xlink:href="#32" y="462.423"/><use xlink:href="#68" y="464.594"/><use xlink:href="#75" y="466.765"/><text x="10.02" y="470.606" class="g">&quot;field&quot;</text><text x="17.034" y="470.606" class="f">:</text><text x="19.038" y="470.606" class="h">&quot;reviewDecision&quot;</text><text x="35.07" y="470.606" class="f">,</text><use xlink:href="#56" y="471.107"/><use xlink:href="#57" y="473.278"/><use xlink:href="#32" y="475.449"/><use xlink:href="#68" y="477.62"/><use xlink:href="#75" y="479.791"/><text x="10.02" y="483.632" class="g">&quot;field&quot;</text><text x="17.034" y="483.632" class="f">:</text><text x="19.038" y="483.632" class="h">&quot;reviews&quot;</text><text x="28.056" y="483.632" class="f">,</text><use xlink:href="#69" y="484.133"/><use xlink:href="#14" y="486.304"/><use xlink:href="#25" y="488.475"/><use xlink:href="#26" y="490.646"/><use xlink:href="#27" y="492.817"/><use xlink:href="#28" y="494.988"/><use xlink:href="#29" y="497.159"/><use xlink:href="#22" y="499.33"/><use xlink:href="#23" y="501.501"/><use xlink:href="#70" y="503.672"/><use xlink:href="#14" y="505.843"/><use xlink:href="#52" y="508.014"/><use xlink:href="#26" y="510.185"/><use xlink:href="#53" y="512.356"/><use xlink:href="#54" y="514.527"/><use xlink:href="#55" y="516.698"/><use xlink:href="#22" y="518.869"/><use xlink:href="#23" y="521.04"/><use xlink:href="#59" y="523.211"/><use xlink:href="#14" y="525.382"/><use xlink:href="#52" y="527.553"/><use xlink:href="#26" y="529.724"/><use xlink:href="#53" y="531.895"/><use xlink:href="#54" y="534.066"/><use xlink:href="#55" y="536.237"/><use xlink:href="#22" y="538.408"/><use xlink:href="#23" y="540.579"/><use xlink:href="#58" y="542.75"/><use xlink:href="#14" y="544.921"/><use xlink:href="#25" y="547.092"/><use xlink:href="#26" y="549.263"/><use xlink:href="#27" y="551.434"/><use xlink:href="#28" y="553.605"/><use xlink:href="#29" y="555.776"/><use xlink:href="#22" y="557.947"/><use xlink:href="#23" y="560.118"/><text x="10.02" y="563.959" class="g">&quot;changed&quot;</text><text x="19.038" y="563.959" class="f">:</text><text x="21.042" y="563.959" class="f">[]</text><use xlink:href="#32" y="564.46"/><use xlink:href="#68" y="566.631"/><text x="10.02" y="570.472" class="g">&quot;class&quot;</text><text x="17.034" y="570.472" class="f">:</text><text x="19.038" y="570.472" class="h">&quot;review-requests-changed&quot;</text><text x="44.088" y="570.472" class="f">,</text><text x="10.02" y="572.643" class="g">&quot;field&quot;</text><text x="17.034" y="572.643" class="f">:</text><text x="19.038" y="572.643" class="h">&quot;reviewRequests&quot;</text><text x="35.07" y="572.643" class="f">,</text><use xlink:href="#71" y="573.144"/><use xlink:href="#58" y="575.315"/><use xlink:href="#30" y="577.486"/><use xlink:href="#31" y="579.657"/><use xlink:href="#46" y="581.828"/><use xlink:href="#76" y="583.999"/><text x="4.008" y="587.84" class="f">},</text><use xlink:href="#2" y="588.341"/><text x="6.012" y="592.182" class="g">&quot;id&quot;</text><text x="10.02" y="592.182" class="f">:</text><text x="12.024" y="592.182" class="h">&quot;96a37e0b34b0401047efa577416703ae91580fc274cf38fd2adfdb42c6a934d2&quot;</text><text x="78.156" y="592.182" class="f">,</text><use xlink:href="#3" y="592.683"/><use xlink:href="#5" y="594.854"/><text x="6.012" y="598.695" class="g">&quot;number&quot;</text><text x="14.028" y="598.695" class="f">:</text><text x="16.032" y="598.695" class="i">88</text><text x="18.036" y="598.695" class="f">,</text><use xlink:href="#6" y="599.196"/><text x="8.016" y="603.037" class="g">&quot;id&quot;</text><text x="12.024" y="603.037" class="f">:</text><text x="14.028" y="603.037" class="h">&quot;PR_pr88&quot;</text><text x="23.046" y="603.037" class="f">,</text><text x="8.016" y="605.208" class="g">&quot;title&quot;</text><text x="15.03" y="605.208" class="f">:</text><text x="17.034" y="605.208" class="h">&quot;Refresh</text><text x="26.052" y="605.208" class="h">release</text><text x="34.068" y="605.208" class="h">notes&quot;</text><text x="40.08" y="605.208" class="f">,</text><text x="8.016" y="607.379" class="g">&quot;headRefName&quot;</text><text x="21.042" y="607.379" class="f">:</text><text x="23.046" y="607.379" class="h">&quot;docs/release-notes&quot;</text><text x="43.086" y="607.379" class="f">,</text><text x="8.016" y="609.55" class="g">&quot;author&quot;</text><text x="16.032" y="609.55" class="f">:</text><text x="18.036" y="609.55" class="h">&quot;bob&quot;</text><text x="23.046" y="609.55" class="f">,</text><text x="8.016" y="611.721" class="g">&quot;createdAt&quot;</text><text x="19.038" y="611.721" class="f">:</text><text x="21.042" y="611.721" class="h">&quot;2026-06-25T09:00:00Z&quot;</text><text x="43.086" y="611.721" class="f">,</text><text x="8.016" y="613.892" class="g">&quot;url&quot;</text><text x="13.026" y="613.892" class="f">:</text><text x="15.03" y="613.892" class="h">&quot;https://github.com/owner/repo/pull/88&quot;</text><use xlink:href="#7" y="614.393"/><use xlink:href="#8" y="616.564"/><text x="8.016" y="620.405" class="h">&quot;stale&quot;</text><use xlink:href="#9" y="620.906"/><text x="6.012" y="624.747" class="g">&quot;staleAt&quot;</text><text x="15.03" y="624.747" class="f">:</text><text x="17.034" y="624.747" class="h">&quot;2026-07-01&quot;</text><text x="29.058" y="624.747" class="f">,</text><use xlink:href="#10" y="625.248"/><use xlink:href="#11" y="627.419"/><use xlink:href="#12" y="629.59"/><use xlink:href="#77" y="631.761"/><use xlink:href="#32" y="633.932"/><use xlink:href="#33" y="636.103"/><use xlink:href="#78" y="638.274"/><use xlink:href="#79" y="640.445"/><use xlink:href="#80" y="642.616"/><use xlink:href="#81" y="644.787"/><use xlink:href="#82" y="646.958"/><use xlink:href="#83" y="649.129"/><use xlink:href="#32" y="651.3"/><use xlink:href="#40" y="653.471"/><use xlink:href="#41" y="655.642"/><use xlink:href="#42" y="657.813"/><use xlink:href="#43" y="659.984"/><use xlink:href="#44" y="662.155"/><use xlink:href="#45" y="664.326"/><use xlink:href="#46" y="666.497"/><use xlink:href="#7" y="668.668"/><use xlink:href="#47" y="670.839"/><use xlink:href="#11" y="673.01"/><use xlink:href="#12" y="675.181"/><use xlink:href="#77" y="677.352"/><use xlink:href="#32" y="679.523"/><use xlink:href="#33" y="681.694"/><use xlink:href="#78" y="683.865"/><use xlink:href="#79" y="686.036"/><use xlink:href="#80" y="688.207"/><use xlink:href="#81" y="690.378"/><use xlink:href="#82" y="692.549"/><use xlink:href="#83" y="694.72"/><use xlink:href="#32" y="696.891"/><use xlink:href="#40" y="699.062"/><use xlink:href="#41" y="701.233"/><use xlink:href="#42" y="703.404"/><use xlink:href="#43" y="705.575"/><use xlink:href="#44" y="707.746"/><use xlink:href="#45" y="709.917"/><use xlink:href="#46" y="712.088"/><use xlink:href="#7" y="714.259"/><text x="6.012" y="718.1" class="g">&quot;changed&quot;</text><text x="15.03" y="718.1" class="f">:</text><text x="17.034" y="718.1" class="f">{},</text><use xlink:href="#60" y="718.601"/><text x="8.016" y="722.442" class="g">&quot;ciRollup&quot;</text><text x="18.036" y="722.442" class="f">:</text><text x="20.04" y="722.442" class="h">&quot;none&quot;</text><text x="26.052" y="722.442" class="f">,</text><text x="8.016" y="724.613" class="g">&quot;reviewDecision&quot;</text><text x="24.048" y="724.613" class="f">:</text><text x="26.052" y="724.613" class="h">&quot;none&quot;</text><text x="32.064" y="724.613" class="f">,</text><use xlink:href="#61" y="725.114"/><use xlink:href="#62" y="727.285"/><use xlink:href="#63" y="729.456"/><use xlink:href="#64" y="731.627"/><use xlink:href="#65" y="733.798"/><text x="8.016" y="737.639" class="g">&quot;headSha&quot;</text><text x="17.034" y="737.639" class="f">:</text><text x="19.038" y="737.639" class="h">&quot;d0c5&quot;</text><text x="25.05" y="737.639" class="f">,</text><use xlink:href="#66" y="738.14"/><use xlink:href="#7" y="740.311"/><text x="6.012" y="744.152" class="g">&quot;summaryLine&quot;</text><text x="19.038" y="744.152" class="f">:</text><text x="21.042" y="744.152" class="h">&quot;PR</text><text x="25.05" y="744.152" class="h">#88</text><text x="29.058" y="744.152" class="h">\&quot;Refresh</text><text x="39.078" y="744.152" class="h">release</text><text x="47.094" y="744.152" class="h">notes\&quot;:</text><text x="56.112" y="744.152" class="h">stale&quot;</text><text x="62.124" y="744.152" class="f">,</text><use xlink:href="#67" y="744.653"/><use xlink:href="#68" y="746.824"/><text x="10.02" y="750.665" class="g">&quot;class&quot;</text><text x="17.034" y="750.665" class="f">:</text><text x="19.038" y="750.665" class="h">&quot;stale&quot;</text><text x="26.052" y="750.665" class="f">,</text><text x="10.02" y="752.836" class="g">&quot;field&quot;</text><text x="17.034" y="752.836" class="f">:</text><text x="19.038" y="752.836" class="h">&quot;staleAt&quot;</text><text x="28.056" y="752.836" class="f">,</text><text x="10.02" y="755.007" class="g">&quot;from&quot;</text><text x="16.032" y="755.007" class="f">:</text><text x="18.036" y="755.007" class="j">null</text><text x="22.044" y="755.007" class="f">,</text><text x="10.02" y="757.178" class="g">&quot;to&quot;</text><text x="14.028" y="757.178" class="f">:</text><text x="16.032" y="757.178" class="h">&quot;2026-07-01&quot;</text><use xlink:href="#46" y="757.679"/><use xlink:href="#76" y="759.85"/><use xlink:href="#4" y="762.021"/><use xlink:href="#1" y="764.192"/><text x="2.004" y="768.033" class="g">&quot;filteredDeltas&quot;</text><text x="18.036" y="768.033" class="f">:</text><text x="20.04" y="768.033" class="i">0</text><text x="21.042" y="768.033" class="f">,</text><text x="2.004" y="770.204" class="g">&quot;warnings&quot;</text><text x="12.024" y="770.204" class="f">:</text><text x="14.028" y="770.204" class="f">[],</text><text x="2.004" y="772.375" class="g">&quot;summary&quot;</text><text x="11.022" y="772.375" class="f">:</text><text x="13.026" y="772.375" class="h">&quot;2</text><text x="16.032" y="772.375" class="h">delta(s)&quot;</text><text y="774.546" class="f">}</text><text y="778.888" style="white-space:pre" fill="#a8cc8c" font-weight="700">❯</text></svg></svg></g></svg></svg>