<svg xmlns="http://www.w3.org/2000/svg" xmlns:xlink="http://www.w3.org/1999/xlink" width="1076" height="1550.57"><rect width="1076" height="1550.57" rx="5" ry="5" class="a"/><svg y="0%" x="0%"><circle cx="20" cy="20" r="6" fill="#ff5f58"/><circle cx="40" cy="20" r="6" fill="#ffbd2e"/><circle cx="60" cy="20" r="6" fill="#18c132"/></svg><svg height="1454.57" viewBox="0 0 100 145.457" width="1000" x="33" xmlns="http://www.w3.org/2000/svg" xmlns:xlink="http://www.w3.org/1999/xlink" y="68"><style>.a{fill:#282d35}.f{fill:#b9c0cb;font-weight:700}.f,.g,.h,.i{white-space:pre}.g{fill:#71bef2;font-weight:700}.h,.i{fill:#a8cc8c}.i{fill:#b9c0cb}.l{fill:#a8cc8c;font-weight:700}.l,.m,.n{white-space:pre}.m{fill:#fff;font-weight:700}.n{fill:#6f7783}</style><g font-family="Monaco,Consolas,Menlo,'Bitstream Vera Sans Mono','Powerline Symbols',monospace" font-size="1.67"><defs><symbol id="1"><text x="2.004" y="1.67" class="f">],</text></symbol><symbol id="2"><text x="8.016" y="1.67" class="g">&quot;state&quot;</text><text x="15.03" y="1.67" class="f">:</text><text x="17.034" y="1.67" class="h">&quot;OPEN&quot;</text><text x="23.046" y="1.67" class="f">,</text></symbol><symbol id="3"><text x="6.012" y="1.67" class="f">},</text></symbol><symbol id="4"><text x="8.016" y="1.67" class="f">{</text></symbol><symbol id="5"><text x="10.02" y="1.67" class="g">&quot;opaque&quot;</text><text x="18.036" y="1.67" class="f">:</text><text x="20.04" y="1.67" class="i">true</text></symbol><symbol id="6"><text x="8.016" y="1.67" class="f">},</text></symbol><symbol id="7"><text x="10.02" y="1.67" class="g">&quot;class&quot;</text><text x="17.034" y="1.67" class="f">:</text><text x="19.038" y="1.67" class="h">&quot;review-changed&quot;</text><text x="35.07" y="1.67" class="f">,</text></symbol><symbol id="a"><path fill="transparent" d="M0 0h100v67H0z"/></symbol><symbol id="b"><path fill="#6f7683" d="M0 0h1.102v2.171H0z"/></symbol></defs><path class="a" d="M0 0h100v145.457H0z"/><svg width="100"><svg><use xlink:href="#a"/><use xlink:href="#b" x="1.996" y="138.919"/><text y="1.67" class="l">❯</text><text x="2.004" y="1.67" class="m">gh-delta</text><text x="11.022" y="1.67" class="m">--repo</text><text x="18.036" y="1.67" class="m">owner/repo</text><text x="29.058" y="1.67" class="m">--format</text><text x="38.076" y="1.67" class="m">json</text><text x="43.086" y="1.67" class="m">--detail</text><text x="52.104" y="1.67" class="n">|</text><text x="54.108" y="1.67" class="n">jq</text><text y="3.841" class="f">{</text><text x="2.004" y="6.012" class="g">&quot;schemaVersion&quot;</text><text x="17.034" y="6.012" class="f">:</text><text x="19.038" y="6.012" class="i">1</text><text x="20.04" y="6.012" class="f">,</text><text x="2.004" y="8.183" class="g">&quot;baseline&quot;</text><text x="12.024" y="8.183" class="f">:</text><text x="14.028" y="8.183" class="i">false</text><text x="19.038" y="8.183" class="f">,</text><text x="2.004" y="10.354" class="g">&quot;repo&quot;</text><text x="8.016" y="10.354" class="f">:</text><text x="10.02" y="10.354" class="h">&quot;owner/repo&quot;</text><text x="22.044" y="10.354" class="f">,</text><text x="2.004" y="12.525" class="g">&quot;monitorId&quot;</text><text x="13.026" y="12.525" class="f">:</text><text x="15.03" y="12.525" class="h">&quot;host-9c1f7b2a4e83&quot;</text><text x="34.068" y="12.525" class="f">,</text><text x="2.004" y="14.696" class="g">&quot;entities&quot;</text><text x="12.024" y="14.696" class="f">:</text><text x="14.028" y="14.696" class="f">[</text><text x="4.008" y="16.867" class="h">&quot;pr&quot;</text><use xlink:href="#1" y="17.368"/><text x="2.004" y="21.209" class="g">&quot;stateFile&quot;</text><text x="13.026" y="21.209" class="f">:</text><text x="15.03" y="21.209" class="h">&quot;/tmp/gh-delta-user/repo-owner%2Frepo__monitor-host-9c1f7b2a4e83__pr-issue.json&quot;</text><text x="95.19" y="21.209" class="f">,</text><text x="2.004" y="23.38" class="g">&quot;at&quot;</text><text x="6.012" y="23.38" class="f">:</text><text x="8.016" y="23.38" class="h">&quot;2026-07-01T12:05:00.000Z&quot;</text><text x="34.068" y="23.38" class="f">,</text><text x="2.004" y="25.551" class="g">&quot;deltas&quot;</text><text x="10.02" y="25.551" class="f">:</text><text x="12.024" y="25.551" class="f">[</text><text x="4.008" y="27.722" class="f">{</text><text x="6.012" y="29.893" class="g">&quot;id&quot;</text><text x="10.02" y="29.893" class="f">:</text><text x="12.024" y="29.893" class="h">&quot;f9e831442932e012f9928543f9eaad12749a32cd99abce8f3844438216096e96&quot;</text><text x="78.156" y="29.893" class="f">,</text><text x="6.012" y="32.064" class="g">&quot;entity&quot;</text><text x="14.028" y="32.064" class="f">:</text><text x="16.032" y="32.064" class="h">&quot;pr&quot;</text><text x="20.04" y="32.064" class="f">,</text><text x="6.012" y="34.235" class="g">&quot;number&quot;</text><text x="14.028" y="34.235" class="f">:</text><text x="16.032" y="34.235" class="i">42</text><text x="18.036" y="34.235" class="f">,</text><text x="6.012" y="36.406" class="g">&quot;title&quot;</text><text x="13.026" y="36.406" class="f">:</text><text x="15.03" y="36.406" class="h">&quot;Add</text><text x="20.04" y="36.406" class="h">billing</text><text x="28.056" y="36.406" class="h">webhook&quot;</text><text x="36.072" y="36.406" class="f">,</text><text x="6.012" y="38.577" class="g">&quot;headRefName&quot;</text><text x="19.038" y="38.577" class="f">:</text><text x="21.042" y="38.577" class="h">&quot;feature/billing-webhook&quot;</text><text x="46.092" y="38.577" class="f">,</text><text x="6.012" y="40.748" class="g">&quot;classes&quot;</text><text x="15.03" y="40.748" class="f">:</text><text x="17.034" y="40.748" class="f">[</text><text x="8.016" y="42.919" class="h">&quot;ci-changed&quot;</text><text x="20.04" y="42.919" class="f">,</text><text x="8.016" y="45.09" class="h">&quot;review-changed&quot;</text><text x="6.012" y="47.261" class="f">],</text><text x="6.012" y="49.432" class="g">&quot;from&quot;</text><text x="12.024" y="49.432" class="f">:</text><text x="14.028" y="49.432" class="f">{</text><use xlink:href="#2" y="49.933"/><text x="8.016" y="53.774" class="g">&quot;ci&quot;</text><text x="12.024" y="53.774" class="f">:</text><text x="14.028" y="53.774" class="h">&quot;a1b2c3&quot;</text><text x="22.044" y="53.774" class="f">,</text><text x="8.016" y="55.945" class="g">&quot;review&quot;</text><text x="16.032" y="55.945" class="f">:</text><text x="18.036" y="55.945" class="h">&quot;CHANGES_REQUESTED&quot;</text><text x="37.074" y="55.945" class="f">,</text><text x="8.016" y="58.116" class="g">&quot;reviews&quot;</text><text x="17.034" y="58.116" class="f">:</text><text x="19.038" y="58.116" class="h">&quot;r-9f8e&quot;</text><use xlink:href="#3" y="58.617"/><text x="6.012" y="62.458" class="g">&quot;to&quot;</text><text x="10.02" y="62.458" class="f">:</text><text x="12.024" y="62.458" class="f">{</text><use xlink:href="#2" y="62.959"/><text x="8.016" y="66.8" class="g">&quot;ci&quot;</text><text x="12.024" y="66.8" class="f">:</text><text x="14.028" y="66.8" class="h">&quot;d4e5f6&quot;</text><text x="22.044" y="66.8" class="f">,</text><text x="8.016" y="68.971" class="g">&quot;review&quot;</text><text x="16.032" y="68.971" class="f">:</text><text x="18.036" y="68.971" class="h">&quot;APPROVED&quot;</text><text x="28.056" y="68.971" class="f">,</text><text x="8.016" y="71.142" class="g">&quot;reviews&quot;</text><text x="17.034" y="71.142" class="f">:</text><text x="19.038" y="71.142" class="h">&quot;r-2c1d&quot;</text><use xlink:href="#3" y="71.643"/><text x="6.012" y="75.484" class="g">&quot;summaryLine&quot;</text><text x="19.038" y="75.484" class="f">:</text><text x="21.042" y="75.484" class="h">&quot;PR</text><text x="25.05" y="75.484" class="h">#42</text><text x="29.058" y="75.484" class="h">\&quot;Add</text><text x="35.07" y="75.484" class="h">billing</text><text x="43.086" y="75.484" class="h">webhook\&quot;:</text><text x="54.108" y="75.484" class="h">ci-changed,</text><text x="66.132" y="75.484" class="h">review-changed&quot;</text><text x="81.162" y="75.484" class="f">,</text><text x="6.012" y="77.655" class="g">&quot;line&quot;</text><text x="12.024" y="77.655" class="f">:</text><text x="14.028" y="77.655" class="h">&quot;PR</text><text x="18.036" y="77.655" class="h">#42</text><text x="22.044" y="77.655" class="h">\&quot;Add</text><text x="28.056" y="77.655" class="h">billing</text><text x="36.072" y="77.655" class="h">webhook\&quot;:</text><text x="47.094" y="77.655" class="h">ci-changed,</text><text x="59.118" y="77.655" class="h">review-changed&quot;</text><text x="74.148" y="77.655" class="f">,</text><text x="6.012" y="79.826" class="g">&quot;details&quot;</text><text x="15.03" y="79.826" class="f">:</text><text x="17.034" y="79.826" class="f">[</text><use xlink:href="#4" y="80.327"/><text x="10.02" y="84.168" class="g">&quot;class&quot;</text><text x="17.034" y="84.168" class="f">:</text><text x="19.038" y="84.168" class="h">&quot;ci-changed&quot;</text><text x="31.062" y="84.168" class="f">,</text><text x="10.02" y="86.339" class="g">&quot;field&quot;</text><text x="17.034" y="86.339" class="f">:</text><text x="19.038" y="86.339" class="h">&quot;ci&quot;</text><text x="23.046" y="86.339" class="f">,</text><text x="10.02" y="88.51" class="g">&quot;from&quot;</text><text x="16.032" y="88.51" class="f">:</text><text x="18.036" y="88.51" class="h">&quot;a1b2c3&quot;</text><text x="26.052" y="88.51" class="f">,</text><text x="10.02" y="90.681" class="g">&quot;to&quot;</text><text x="14.028" y="90.681" class="f">:</text><text x="16.032" y="90.681" class="h">&quot;d4e5f6&quot;</text><text x="24.048" y="90.681" class="f">,</text><use xlink:href="#5" y="91.182"/><use xlink:href="#6" y="93.353"/><use xlink:href="#4" y="95.524"/><use xlink:href="#7" y="97.695"/><text x="10.02" y="101.536" class="g">&quot;field&quot;</text><text x="17.034" y="101.536" class="f">:</text><text x="19.038" y="101.536" class="h">&quot;review&quot;</text><text x="27.054" y="101.536" class="f">,</text><text x="10.02" y="103.707" class="g">&quot;from&quot;</text><text x="16.032" y="103.707" class="f">:</text><text x="18.036" y="103.707" class="h">&quot;CHANGES_REQUESTED&quot;</text><text x="37.074" y="103.707" class="f">,</text><text x="10.02" y="105.878" class="g">&quot;to&quot;</text><text x="14.028" y="105.878" class="f">:</text><text x="16.032" y="105.878" class="h">&quot;APPROVED&quot;</text><use xlink:href="#6" y="106.379"/><use xlink:href="#4" y="108.55"/><use xlink:href="#7" y="110.721"/><text x="10.02" y="114.562" class="g">&quot;field&quot;</text><text x="17.034" y="114.562" class="f">:</text><text x="19.038" y="114.562" class="h">&quot;reviews&quot;</text><text x="28.056" y="114.562" class="f">,</text><text x="10.02" y="116.733" class="g">&quot;from&quot;</text><text x="16.032" y="116.733" class="f">:</text><text x="18.036" y="116.733" class="h">&quot;r-9f8e&quot;</text><text x="26.052" y="116.733" class="f">,</text><text x="10.02" y="118.904" class="g">&quot;to&quot;</text><text x="14.028" y="118.904" class="f">:</text><text x="16.032" y="118.904" class="h">&quot;r-2c1d&quot;</text><text x="24.048" y="118.904" class="f">,</text><use xlink:href="#5" y="119.405"/><text x="8.016" y="123.246" class="f">}</text><text x="6.012" y="125.417" class="f">]</text><text x="4.008" y="127.588" class="f">}</text><use xlink:href="#1" y="128.089"/><text x="2.004" y="131.93" class="g">&quot;summary&quot;</text><text x="11.022" y="131.93" class="f">:</text><text x="13.026" y="131.93" class="h">&quot;1</text><text x="16.032" y="131.93" class="h">delta(s)&quot;</text><text x="25.05" y="131.93" class="f">,</text><text x="2.004" y="134.101" class="g">&quot;warnings&quot;</text><text x="12.024" y="134.101" class="f">:</text><text x="14.028" y="134.101" class="f">[]</text><text y="136.272" class="f">}</text><text y="140.614" class="l">❯</text></svg></svg></g></svg></svg>