<svg xmlns="http://www.w3.org/2000/svg" xmlns:xlink="http://www.w3.org/1999/xlink" width="1076" height="508.49"><rect width="1076" height="508.49" rx="5" ry="5" class="a"/><svg y="0%" x="0%"><circle cx="20" cy="20" r="6" fill="#ff5f58"/><circle cx="40" cy="20" r="6" fill="#ffbd2e"/><circle cx="60" cy="20" r="6" fill="#18c132"/></svg><svg height="412.49" viewBox="0 0 100 41.249" width="1000" x="33" xmlns="http://www.w3.org/2000/svg" xmlns:xlink="http://www.w3.org/1999/xlink" y="68"><style>.a{fill:#282d35}.h{fill:#a8cc8c;white-space:pre}.h,.i,.j{font-weight:700}.i{fill:#fff;white-space:pre}.j{fill:#b9c0cb}.j,.k,.l{white-space:pre}.k{fill:#71bef2;font-weight:700}.l{fill:#a8cc8c}</style><g font-family="Monaco,Consolas,Menlo,'Bitstream Vera Sans Mono','Powerline Symbols',monospace" font-size="1.67"><defs><symbol id="a"><path fill="transparent" d="M0 0h100v19H0z"/></symbol><symbol id="b"><path fill="#6f7683" d="M0 0h1.102v2.171H0z"/></symbol></defs><path class="a" d="M0 0h100v41.249H0z"/><svg width="100"><svg><use xlink:href="#a"/><use xlink:href="#b" x="1.996" y="36.882"/><text y="1.67" class="h">❯</text><text x="2.004" y="1.67" class="i">gh-delta</text><text x="11.022" y="1.67" class="i">schema</text><text x="18.036" y="1.67" class="i">--format</text><text x="27.054" y="1.67" class="i">compact</text><text x="35.07" y="1.67" class="i">|</text><text x="37.074" y="1.67" class="i">jq</text><text x="40.08" y="1.67" class="i">&apos;{&quot;$schema&quot;:</text><text x="53.106" y="1.67" class="i">.&quot;$schema&quot;,</text><text x="65.13" y="1.67" class="i">title,</text><text x="72.144" y="1.67" class="i">schemaVersion,</text><text x="87.174" y="1.67" class="i">variants:</text><text x="97.194" y="1.67" class="i">[.r</text><text y="3.841" class="i">equired]}&apos;</text><text y="6.012" class="j">{</text><text x="2.004" y="8.183" class="k">&quot;$schema&quot;</text><text x="11.022" y="8.183" class="j">:</text><text x="13.026" y="8.183" class="l">&quot;https://json-schema.org/draft/2020-12/schema&quot;</text><text x="59.118" y="8.183" class="j">,</text><text x="2.004" y="10.354" class="k">&quot;title&quot;</text><text x="9.018" y="10.354" class="j">:</text><text x="11.022" y="10.354" class="l">&quot;compact</text><text x="20.04" y="10.354" class="l">report&quot;</text><text x="27.054" y="10.354" class="j">,</text><text x="2.004" y="12.525" class="k">&quot;schemaVersion&quot;</text><text x="17.034" y="12.525" class="j">:</text><text x="19.038" y="12.525" style="white-space:pre" fill="#b9c0cb">2</text><text x="20.04" y="12.525" class="j">,</text><text x="2.004" y="14.696" class="k">&quot;variants&quot;</text><text x="12.024" y="14.696" class="j">:</text><text x="14.028" y="14.696" class="j">[</text><text x="4.008" y="16.867" class="j">[</text><text x="6.012" y="19.038" class="l">&quot;schemaVersion&quot;</text><text x="21.042" y="19.038" class="j">,</text><text x="6.012" y="21.209" class="l">&quot;detectedAt&quot;</text><text x="18.036" y="21.209" class="j">,</text><text x="6.012" y="23.38" class="l">&quot;counts&quot;</text><text x="14.028" y="23.38" class="j">,</text><text x="6.012" y="25.551" class="l">&quot;deltas&quot;</text><text x="14.028" y="25.551" class="j">,</text><text x="6.012" y="27.722" class="l">&quot;warnings&quot;</text><text x="4.008" y="29.893" class="j">]</text><text x="2.004" y="32.064" class="j">]</text><text y="34.235" class="j">}</text><text y="38.577" class="h">❯</text></svg></svg></g></svg></svg>