<svg xmlns="http://www.w3.org/2000/svg" xmlns:xlink="http://www.w3.org/1999/xlink" width="996" height="378.23"><rect width="996" height="378.23" rx="5" ry="5" class="a"/><svg y="0%" x="0%"><circle cx="20" cy="20" r="6" fill="#ff5f58"/><circle cx="40" cy="20" r="6" fill="#ffbd2e"/><circle cx="60" cy="20" r="6" fill="#18c132"/></svg><svg height="282.23" viewBox="0 0 92 28.223" width="920" x="33" xmlns="http://www.w3.org/2000/svg" xmlns:xlink="http://www.w3.org/1999/xlink" y="68"><style>.a{fill:#282d35}.h{fill:#a8cc8c;font-weight:700}.h,.i,.j{white-space:pre}.i{fill:#fff;font-weight:700}.j{fill:#b9c0cb}</style><g font-family="Monaco,Consolas,Menlo,'Bitstream Vera Sans Mono','Powerline Symbols',monospace" font-size="1.67"><defs><symbol id="a"><path fill="transparent" d="M0 0h92v13H0z"/></symbol><symbol id="b"><path fill="#6f7683" d="M0 0h1.102v2.171H0z"/></symbol></defs><path class="a" d="M0 0h92v28.223H0z"/><svg width="92"><svg><use xlink:href="#a"/><use xlink:href="#b" x="1.996" y="21.685"/><text y="1.67" class="h">❯</text><text x="2.004" y="1.67" class="i">gh-delta</text><text x="11.022" y="1.67" class="i">--repo</text><text x="18.036" y="1.67" class="i">owner/repo</text><text y="3.841" class="j">2026-07-01T12:05:00.000Z</text><text x="25.05" y="3.841" class="j">|</text><text x="27.054" y="3.841" class="j">2</text><text x="29.058" y="3.841" class="j">delta(s)</text><text y="8.183" class="j">PR</text><text x="3.006" y="8.183" class="j">#42</text><text x="7.014" y="8.183" class="j">&quot;Add</text><text x="12.024" y="8.183" class="j">billing</text><text x="20.04" y="8.183" class="j">webhook&quot;:</text><text x="30.06" y="8.183" class="j">ci-changed,</text><text x="42.084" y="8.183" class="j">review-changed</text><text y="10.354" class="j">classes:</text><text x="9.018" y="10.354" class="j">ci-changed,</text><text x="21.042" y="10.354" class="j">review-changed</text><text y="12.525" class="j">suggested</text><text x="10.02" y="12.525" class="j">action:</text><text x="18.036" y="12.525" class="j">CI/review</text><text x="28.056" y="12.525" class="j">changed.</text><text x="37.074" y="12.525" class="j">Read</text><text x="42.084" y="12.525" class="j">checks</text><text x="49.098" y="12.525" class="j">and</text><text x="53.106" y="12.525" class="j">review</text><text x="60.12" y="12.525" class="j">threads</text><text x="68.136" y="12.525" class="j">before</text><text x="75.15" y="12.525" class="j">merge.</text><text y="16.867" class="j">ISSUE</text><text x="6.012" y="16.867" class="j">#17</text><text x="10.02" y="16.867" class="j">&quot;Backfill</text><text x="20.04" y="16.867" class="j">customer</text><text x="29.058" y="16.867" class="j">imports&quot;:</text><text x="39.078" y="16.867" class="j">relabeled</text><text y="19.038" class="j">classes:</text><text x="9.018" y="19.038" class="j">relabeled</text><text y="21.209" class="j">suggested</text><text x="10.02" y="21.209" class="j">action:</text><text x="18.036" y="21.209" class="j">scope/state</text><text x="30.06" y="21.209" class="j">changed.</text><text x="39.078" y="21.209" class="j">Reassess</text><text x="48.096" y="21.209" class="j">dispatch.</text><text y="23.38" class="h">❯</text></svg></svg></g></svg></svg>