<svg xmlns="http://www.w3.org/2000/svg" xmlns:xlink="http://www.w3.org/1999/xlink" width="836" height="269.68"><rect width="836" height="269.68" rx="5" ry="5" class="a"/><svg y="0%" x="0%"><circle cx="20" cy="20" r="6" fill="#ff5f58"/><circle cx="40" cy="20" r="6" fill="#ffbd2e"/><circle cx="60" cy="20" r="6" fill="#18c132"/></svg><svg height="173.68" viewBox="0 0 76 17.368" width="760" x="33" xmlns="http://www.w3.org/2000/svg" xmlns:xlink="http://www.w3.org/1999/xlink" y="68"><style>.a{fill:#282d35}.h{fill:#a8cc8c;font-weight:700}.h,.i,.j{white-space:pre}.i{fill:#fff;font-weight:700}.j{fill:#b9c0cb}</style><g font-family="Monaco,Consolas,Menlo,'Bitstream Vera Sans Mono','Powerline Symbols',monospace" font-size="1.67"><defs><symbol id="a"><path fill="transparent" d="M0 0h76v8H0z"/></symbol><symbol id="b"><path fill="#6f7683" d="M0 0h1.102v2.171H0z"/></symbol></defs><path class="a" d="M0 0h76v17.368H0z"/><svg width="76"><svg><use xlink:href="#a"/><use xlink:href="#b" x="1.996" y="10.83"/><text y="1.67" class="h">❯</text><text x="2.004" y="1.67" class="i">gh-delta</text><text x="11.022" y="1.67" class="i">--repo</text><text x="18.036" y="1.67" class="i">owner/repo</text><text y="3.841" class="j">2026-07-01T12:00:00.000Z</text><text x="25.05" y="3.841" class="j">|</text><text x="27.054" y="3.841" class="j">0</text><text x="29.058" y="3.841" class="j">delta(s)</text><text y="8.183" class="j">Baseline</text><text x="9.018" y="8.183" class="j">seeded</text><text x="16.032" y="8.183" class="j">for</text><text x="20.04" y="8.183" class="j">owner/repo</text><text x="31.062" y="8.183" class="j">(monitor:</text><text x="41.082" y="8.183" class="j">host-9c1f7b2a4e83).</text><text y="10.354" class="j">No</text><text x="3.006" y="10.354" class="j">action</text><text x="10.02" y="10.354" class="j">taken.</text><text y="12.525" class="h">❯</text></svg></svg></g></svg></svg>